<svg id="smartphone" xmlns="http://www.w3.org/2000/svg" viewBox="0 0 118 115.9">
  <defs>
    <style>
      .cls-1 {
        fill: #ee7601;
      }
    </style>
  </defs>
  <circle id="Ellipse_20" data-name="Ellipse 20" class="cls-1" cx="3.933" cy="3.933" r="3.933" transform="translate(108.167 86.4) rotate(180)"/>
  <path id="Path_1164" data-name="Path 1164" class="cls-1" d="M51.967,6a1.967,1.967,0,1,0,0,3.933h1.967a1.967,1.967,0,1,0,0-3.933Z" transform="translate(48.333 5.8)"/>
  <path id="Path_1165" data-name="Path 1165" class="cls-1" d="M45.933,6H43.967a1.967,1.967,0,1,0,0,3.933h1.967a1.967,1.967,0,1,0,0-3.933Z" transform="translate(40.6 5.8)"/>
  <path id="Path_1166" data-name="Path 1166" class="cls-1" d="M37.933,6H35.967a1.967,1.967,0,1,0,0,3.933h1.967a1.967,1.967,0,1,0,0-3.933Z" transform="translate(32.867 5.8)"/>
  <path id="Path_1167" data-name="Path 1167" class="cls-1" d="M33.933,6H31.967a1.967,1.967,0,1,0,0,3.933h1.967a1.967,1.967,0,1,0,0-3.933Z" transform="translate(29 5.8)"/>
  <path id="Path_1168" data-name="Path 1168" class="cls-1" d="M55.967,6a1.967,1.967,0,1,0,0,3.933h1.967a1.967,1.967,0,1,0,0-3.933Z" transform="translate(52.2 5.8)"/>
  <path id="Path_1169" data-name="Path 1169" class="cls-1" d="M47.967,6a1.967,1.967,0,1,0,0,3.933h1.967a1.967,1.967,0,1,0,0-3.933Z" transform="translate(44.467 5.8)"/>
  <path id="Path_1170" data-name="Path 1170" class="cls-1" d="M41.933,6H39.967a1.967,1.967,0,1,0,0,3.933h1.967a1.967,1.967,0,0,0,0-3.933Z" transform="translate(36.733 5.8)"/>
  <path id="Path_1171" data-name="Path 1171" class="cls-1" d="M59.967,20.957A1.966,1.966,0,0,0,58,22.924v1.953a1.967,1.967,0,0,0,3.933,0V22.924A1.966,1.966,0,0,0,59.967,20.957Z" transform="translate(56.067 20.258)"/>
  <path id="Path_1192" data-name="Path 1192" class="cls-1" d="M59.967,20.957A1.966,1.966,0,0,0,58,22.924v1.953a1.967,1.967,0,0,0,3.933,0V22.924A1.966,1.966,0,0,0,59.967,20.957Z" transform="translate(56.067 28.258)"/>
  <path id="Path_1172" data-name="Path 1172" class="cls-1" d="M114.067,28.456c-.024-.016-.049-.026-.073-.041a8.873,8.873,0,0,0-1.091-.594c-.114-.051-.224-.1-.34-.151-.087-.035-.167-.081-.254-.112a1.984,1.984,0,0,0-.212-.033,8.576,8.576,0,0,0-2.759-.492H8.663A8.674,8.674,0,0,0,0,35.7V85.234A8.674,8.674,0,0,0,8.663,93.9H109.335A8.674,8.674,0,0,0,118,85.236V34.712a1.932,1.932,0,0,0-.2-.83,8.611,8.611,0,0,0-1.379-3.143A8.3,8.3,0,0,0,114.067,28.456ZM13.767,68.332a7.867,7.867,0,1,1,7.867-7.867A7.875,7.875,0,0,1,13.767,68.332Zm88.5,21.633H27.533v-59h74.733ZM112.1,68.332a1.967,1.967,0,1,1-3.933,0V66.366a1.967,1.967,0,1,1,3.933,0Zm0-7.867a1.967,1.967,0,1,1-3.933,0V52.6a1.967,1.967,0,1,1,3.933,0Z" transform="translate(118 142.932) rotate(180)"/>
  <path id="Path_1173" data-name="Path 1173" class="cls-1" d="M35.747,3.933H37.7A1.967,1.967,0,1,0,37.7,0H35.747a1.967,1.967,0,1,0,0,3.933Z" transform="translate(32.654)"/>
  <path id="Path_1174" data-name="Path 1174" class="cls-1" d="M58.381,5.65A1.966,1.966,0,0,0,60.2,6.869a1.922,1.922,0,0,0,.745-.147,1.967,1.967,0,0,0,1.074-2.566,8.691,8.691,0,0,0-1.286-2.167,1.967,1.967,0,0,0-3.056,2.478A4.626,4.626,0,0,1,58.381,5.65Z" transform="translate(55.332 1.218)"/>
  <path id="Path_1175" data-name="Path 1175" class="cls-1" d="M43.7,3.933h1.955a1.967,1.967,0,1,0,0-3.933H43.7a1.967,1.967,0,1,0,0,3.933Z" transform="translate(40.338)"/>
  <path id="Path_1176" data-name="Path 1176" class="cls-1" d="M51.645,3.933H53.6A1.967,1.967,0,1,0,53.6,0H51.645a1.967,1.967,0,1,0,0,3.933Z" transform="translate(48.022)"/>
  <path id="Path_1177" data-name="Path 1177" class="cls-1" d="M39.722,3.933h1.953a1.967,1.967,0,1,0,0-3.933H39.722a1.967,1.967,0,1,0,0,3.933Z" transform="translate(36.497)"/>
  <path id="Path_1178" data-name="Path 1178" class="cls-1" d="M55.618,3.933h1.955A1.925,1.925,0,0,0,59.49,1.967,2.009,2.009,0,0,0,57.474,0H55.62a1.967,1.967,0,0,0,0,3.933Z" transform="translate(51.865)"/>
  <path id="Path_1179" data-name="Path 1179" class="cls-1" d="M47.67,3.933h1.955a1.967,1.967,0,1,0,0-3.933H47.67a1.967,1.967,0,1,0,0,3.933Z" transform="translate(44.18)"/>
  <path id="Path_1180" data-name="Path 1180" class="cls-1" d="M59.967,9.034A1.966,1.966,0,0,0,58,11v1.955a1.967,1.967,0,0,0,3.933,0V11A1.966,1.966,0,0,0,59.967,9.034Z" transform="translate(56.067 8.733)"/>
  <path id="Path_1181" data-name="Path 1181" class="cls-1" d="M59.967,5.061A1.966,1.966,0,0,0,58,7.028V8.981a1.967,1.967,0,0,0,3.933,0V7.028A1.966,1.966,0,0,0,59.967,5.061Z" transform="translate(56.067 4.892)"/>
  <path id="Path_1182" data-name="Path 1182" class="cls-1" d="M59.967,16.983A1.966,1.966,0,0,0,58,18.95V20.9a1.967,1.967,0,0,0,3.933,0V18.95A1.967,1.967,0,0,0,59.967,16.983Z" transform="translate(56.067 16.417)"/>
  <path id="Path_1183" data-name="Path 1183" class="cls-1" d="M59.967,13.009A1.966,1.966,0,0,0,58,14.976v1.953a1.967,1.967,0,0,0,3.933,0V14.976A1.966,1.966,0,0,0,59.967,13.009Z" transform="translate(56.067 12.575)"/>
  <path id="Path_1184" data-name="Path 1184" class="cls-1" d="M28.967,27.392a1.966,1.966,0,0,0,1.967-1.967V23.473a1.967,1.967,0,1,0-3.933,0v1.953A1.966,1.966,0,0,0,28.967,27.392Z" transform="translate(26.1 20.789)"/>
  <path id="Path_1185" data-name="Path 1185" class="cls-1" d="M28.967,15.469A1.966,1.966,0,0,0,30.933,13.5V11.55a1.967,1.967,0,1,0-3.933,0V13.5A1.966,1.966,0,0,0,28.967,15.469Z" transform="translate(26.1 9.264)"/>
  <path id="Path_1186" data-name="Path 1186" class="cls-1" d="M28.967,11.5A1.966,1.966,0,0,0,30.933,9.53V7.575a1.967,1.967,0,1,0-3.933,0V9.528A1.968,1.968,0,0,0,28.967,11.5Z" transform="translate(26.1 5.421)"/>
  <path id="Path_1187" data-name="Path 1187" class="cls-1" d="M28.611,7.406a1.929,1.929,0,0,0,.446.049,1.968,1.968,0,0,0,1.914-1.522,4.715,4.715,0,0,1,.5-1.274A1.967,1.967,0,0,0,28.06,2.7a8.665,8.665,0,0,0-.922,2.346A1.969,1.969,0,0,0,28.611,7.406Z" transform="translate(26.184 1.656)"/>
  <path id="Path_1188" data-name="Path 1188" class="cls-1" d="M31.776,4.036A1.867,1.867,0,0,0,32.12,4a5,5,0,0,1,.828-.071h.777a1.967,1.967,0,1,0,0-3.933h-.777a8.636,8.636,0,0,0-1.514.132,1.967,1.967,0,0,0,.342,3.9Z" transform="translate(28.815)"/>
  <path id="Path_1189" data-name="Path 1189" class="cls-1" d="M28.967,23.419a1.966,1.966,0,0,0,1.967-1.967V19.5A1.967,1.967,0,1,0,27,19.5v1.955A1.966,1.966,0,0,0,28.967,23.419Z" transform="translate(26.1 16.947)"/>
  <path id="Path_1190" data-name="Path 1190" class="cls-1" d="M28.967,19.445a1.966,1.966,0,0,0,1.967-1.967V15.524a1.967,1.967,0,1,0-3.933,0v1.955A1.966,1.966,0,0,0,28.967,19.445Z" transform="translate(26.1 13.105)"/>
  <path id="Path_1191" data-name="Path 1191" class="cls-1" d="M4.967,41.334a1.966,1.966,0,0,0,1.967-1.967A21.659,21.659,0,0,1,28.567,17.734h5.086L25.21,26.176a1.966,1.966,0,1,0,2.781,2.781l11.8-11.8a1.947,1.947,0,0,0,.427-.641,1.969,1.969,0,0,0,0-1.5,1.947,1.947,0,0,0-.427-.641l-11.8-11.8A1.966,1.966,0,1,0,25.21,5.357L33.652,13.8H28.567A25.6,25.6,0,0,0,3,39.367,1.966,1.966,0,0,0,4.967,41.334Z" transform="translate(2.9 1.933)"/>
</svg>
