<svg xmlns="http://www.w3.org/2000/svg" viewBox="0 0 201.585 60.231">
  <defs>
    <style>
      .cls-1 {
        fill: #fff;
      }

      .cls-2 {
        fill: #242424;
      }

      .cls-3 {
        fill: #ee7601;
      }
    </style>
  </defs>
  <g id="Group_628" data-name="Group 628" transform="translate(-72.247 -457.069)">
    <g id="Group_534" data-name="Group 534" transform="translate(196 457.069)">
      <path id="Path_1110" data-name="Path 1110" class="cls-1" d="M21.114,45.554s-4.394-.747-3.37-4.627,5.39-1.7,5.39-1.7a20,20,0,0,0-1.545,3.331A15.8,15.8,0,0,0,21.114,45.554Z"/>
      <path id="Path_1073" data-name="Path 1073" class="cls-1" d="M104.6,29.631l1.932-8.887h6.525l3.864-1.245,1.159,6.182h-1.932S115.59,28,113.916,28.73a6.755,6.755,0,0,1-3.263.515l-.816.9Z" transform="translate(-59.695 -11.129)"/>
      <path id="Path_1074" data-name="Path 1074" class="cls-1" d="M57.8,115.31a6.01,6.01,0,1,1,6.01,6.01A6.028,6.028,0,0,1,57.8,115.31Z" transform="translate(-32.986 -62.378)"/>
      <path id="Path_1075" data-name="Path 1075" class="cls-1" d="M150.3,115.31a6.01,6.01,0,1,1,6.01,6.01A6.028,6.028,0,0,1,150.3,115.31Z" transform="translate(-85.776 -62.378)"/>
      <path id="Path_1076" data-name="Path 1076" class="cls-2" d="M62.1,126.831a7.292,7.292,0,0,1-7.3-7.3,7.817,7.817,0,0,1,.343-2.232l1.76.558a5.264,5.264,0,0,0-.258,1.674,5.452,5.452,0,0,0,10.9,0,4.989,4.989,0,0,0-.429-2.1l1.717-.73a7.1,7.1,0,0,1,.558,2.833A7.292,7.292,0,0,1,62.1,126.831Z" transform="translate(-31.274 -66.601)"/>
      <path id="Path_1077" data-name="Path 1077" class="cls-2" d="M154.6,120.9a7.3,7.3,0,1,1,7.3-7.3A7.292,7.292,0,0,1,154.6,120.9Zm0-12.75a5.452,5.452,0,1,0,5.452,5.452A5.46,5.46,0,0,0,154.6,108.146Z" transform="translate(-84.064 -60.665)"/>
      <path id="Path_1078" data-name="Path 1078" class="cls-2" d="M157.7,119.59a2.79,2.79,0,1,1,2.79,2.79A2.785,2.785,0,0,1,157.7,119.59Z" transform="translate(-89.999 -66.658)"/>
      <g id="XMLID_2_" transform="translate(19.851 24.041)">
        <g id="Group_520" data-name="Group 520" transform="translate(0.913 1.889)">
          <path id="Path_1079" data-name="Path 1079" class="cls-1" d="M148.9,96.969a8.146,8.146,0,0,1,7.942,4.636,13.666,13.666,0,0,0-4.164.215,13.155,13.155,0,0,0-9.616,8.371,7.816,7.816,0,0,1-1.588-3.349,6.955,6.955,0,0,1-.129-.859,8.2,8.2,0,0,1,6.4-8.844C148.166,97.055,148.51,97.012,148.9,96.969Z" transform="translate(-101.402 -81.257)"/>
          <path id="Path_1080" data-name="Path 1080" class="cls-1" d="M75.17,77.4h0l2.4,4.722h8.157l2.919-9.144V60.529l.3-.129,6.912,15.712a8.688,8.688,0,0,0-1.116.172,8.169,8.169,0,0,0-6.4,8.844H48.468s-1.8-15.2,9.96-15.2H74.011A3.826,3.826,0,0,1,75.17,77.4Z" transform="translate(-48.369 -60.4)"/>
        </g>
        <g id="Group_521" data-name="Group 521">
          <path id="Path_1081" data-name="Path 1081" class="cls-2" d="M141.9,109.968a.983.983,0,0,1-.73-.343,9.361,9.361,0,0,1-1.76-3.735,7.281,7.281,0,0,1-.172-.944,9.08,9.08,0,0,1,7.126-9.831c.429-.086.859-.129,1.245-.172.215,0,.429-.043.644-.043a9.1,9.1,0,0,1,8.2,5.195.94.94,0,0,1-.086.944.965.965,0,0,1-.859.386,11.661,11.661,0,0,0-3.864.215,12.2,12.2,0,0,0-8.929,7.813.951.951,0,0,1-.73.6C141.984,109.968,141.941,109.968,141.9,109.968Zm6.4-13.265h-.515c-.343.043-.687.086-.987.129a7.177,7.177,0,0,0-5.667,7.856l.129.773a6.984,6.984,0,0,0,.558,1.588,13.86,13.86,0,0,1,9.573-7.3,13.663,13.663,0,0,1,2.662-.3A7.549,7.549,0,0,0,148.294,96.7Z" transform="translate(-99.286 -78.2)"/>
          <path id="Path_1082" data-name="Path 1082" class="cls-2" d="M146.984,74.116l-.043-.129L139.3,56.73l1.674-.73,7.684,17.387Z" transform="translate(-99.35 -56)"/>
          <path id="Path_1083" data-name="Path 1083" class="cls-2" d="M87.351,97.443H46.438l-.086-.816c-.043-.343-.944-8.414,3.22-13.051A9.845,9.845,0,0,1,57.257,80.4H72.969v1.846H57.214a8.023,8.023,0,0,0-6.268,2.533c-2.876,3.263-2.919,8.715-2.833,10.775H87.351Z" transform="translate(-46.241 -69.925)"/>
          <path id="Path_1084" data-name="Path 1084" class="cls-2" d="M108.1,89.988V88.142a3.268,3.268,0,0,0,.9-.129,2.9,2.9,0,0,0-.9-5.667V80.5a4.749,4.749,0,0,1,1.46,9.273A5.452,5.452,0,0,1,108.1,89.988Z" transform="translate(-81.544 -69.982)"/>
          <path id="Path_1085" data-name="Path 1085" class="cls-2" d="M120.977,83.2h-9.359L109,78.044l1.631-.859,2.1,4.164h6.912l2.662-8.328V60.7h1.846V73.278Z" transform="translate(-82.058 -58.682)"/>
          <rect id="Rectangle_828" data-name="Rectangle 828" class="cls-2" width="12.321" height="1.846" transform="translate(14.45 18.159)"/>
        </g>
      </g>
      <g id="Group_522" data-name="Group 522" transform="translate(20.263 23.139)">
        <rect id="Rectangle_829" data-name="Rectangle 829" class="cls-3" width="16.914" height="11.419" transform="translate(0.944 0.902)"/>
        <path id="Path_1086" data-name="Path 1086" class="cls-2" d="M65.96,67.122H47.2V53.9H65.96ZM49.046,65.276H64.114V55.7H49.046Z" transform="translate(-47.2 -53.9)"/>
      </g>
      <rect id="Rectangle_830" data-name="Rectangle 830" class="cls-2" width="1.846" height="10.947" transform="translate(28.72 24.255)"/>
      <rect id="Rectangle_831" data-name="Rectangle 831" class="cls-2" width="15.412" height="1.846" transform="translate(0 23.354)"/>
      <rect id="Rectangle_832" data-name="Rectangle 832" class="cls-2" width="10.818" height="1.846" transform="translate(4.594 28.42)"/>
      <rect id="Rectangle_833" data-name="Rectangle 833" class="cls-2" width="6.225" height="1.846" transform="translate(9.23 33.485)"/>
      <path id="Path_1087" data-name="Path 1087" class="cls-2" d="M43.436,96.472a4.336,4.336,0,1,1,0-8.672,4.226,4.226,0,0,1,2.576.859L44.9,90.118a2.6,2.6,0,0,0-1.5-.472,2.49,2.49,0,1,0,0,4.98v1.846Z" transform="translate(-22.314 -50.107)"/>
      <path id="Path_1088" data-name="Path 1088" class="cls-2" d="M117.062,30.476a.387.387,0,0,1-.215-.043.9.9,0,0,1-.687-1.116l.515-2.147h.73c1.932,0,3.907-.215,4.679-2.79l.215-.644h1.331l-.9-4.98a.918.918,0,0,1,1.8-.343l1.288,7.169H123.63a5.572,5.572,0,0,1-5.5,3.434l-.172.73A.878.878,0,0,1,117.062,30.476Z" transform="translate(-66.276 -10.084)"/>
      <g id="Group_523" data-name="Group 523" transform="translate(44.218)">
        <path id="Path_1089" data-name="Path 1089" class="cls-1" d="M120.555,8.454a6.811,6.811,0,0,0-7.3-6.354c-7,0-8.157,5.71-8.157,8.672h8.243Z" transform="translate(-104.198 -1.198)"/>
        <path id="Path_1090" data-name="Path 1090" class="cls-2" d="M112.273,10.518H103v-.9C103,4.937,105.361,0,112.058,0a7.715,7.715,0,0,1,8.2,7.212l.043.687Zm-7.427-1.846h7.126l6.354-2.018c-.3-1.5-1.5-4.808-6.268-4.808C110,1.846,105.275,2.533,104.846,8.672Z" transform="translate(-103)"/>
      </g>
      <path id="Path_1091" data-name="Path 1091" class="cls-2" d="M112.45,26.451a3.939,3.939,0,0,1-3.95-3.95.907.907,0,0,1,.9-.9.937.937,0,0,1,.9.9,2.1,2.1,0,0,0,4.207,0,.907.907,0,0,1,.9-.9.937.937,0,0,1,.9.9A3.815,3.815,0,0,1,112.45,26.451Z" transform="translate(-61.921 -12.327)"/>
      <path id="Path_1092" data-name="Path 1092" class="cls-2" d="M103.362,31.778h-.215a.9.9,0,0,1-.687-1.116l1.846-8.414a.927.927,0,1,1,1.8.429l-1.846,8.414A1.011,1.011,0,0,1,103.362,31.778Z" transform="translate(-58.457 -12.288)"/>
      <g id="Group_524" data-name="Group 524" transform="translate(39.584 17.129)">
        <path id="Path_1093" data-name="Path 1093" class="cls-1" d="M106.977,60.345c.73.944,1.674,2.576-1.073,10,1.245.172,2.4.6,3.606.859,2.533-6.783,3.306-10.6,1.159-13.308a9.27,9.27,0,0,0-5.881-3.048,3.337,3.337,0,0,0,.086-.687l.558-7.513a4.2,4.2,0,0,0-4.207-4.551h-.3A5.587,5.587,0,0,0,95.6,46.608l-1.288,7.642a3.733,3.733,0,0,0,3.821,4.508h1.975C102.083,58.714,105.9,58.971,106.977,60.345Z" transform="translate(-93.371 -41.156)"/>
        <path id="Path_1094" data-name="Path 1094" class="cls-2" d="M108.946,71.024l-.773-.172c-.429-.086-.859-.215-1.288-.343a15.118,15.118,0,0,0-2.232-.515l-1.159-.129.386-1.073c2.662-7.212,1.674-8.5,1.2-9.1-.6-.773-3.048-1.288-6.1-1.288H96.969a4.8,4.8,0,0,1-3.692-1.631,4.724,4.724,0,0,1-.987-3.95l1.288-7.642A6.545,6.545,0,0,1,99.8,39.9h.3a5.29,5.29,0,0,1,3.821,1.631,5.028,5.028,0,0,1,1.331,3.907l-.558,7.384a9.749,9.749,0,0,1,5.581,3.22c2.447,3.091,1.545,7.212-1.03,14.21Zm-2.962-2.662c.472.086.9.215,1.374.343.129.043.3.086.429.129,2.146-5.881,2.833-9.316,1.03-11.634a8.31,8.31,0,0,0-5.323-2.7l-.987-.172.215-.944a2.175,2.175,0,0,0,.086-.558l.558-7.513a3.226,3.226,0,0,0-.859-2.533,3.275,3.275,0,0,0-2.447-1.03h-.3a4.712,4.712,0,0,0-4.422,3.735l-1.288,7.642a2.855,2.855,0,0,0,.6,2.447,2.982,2.982,0,0,0,2.318.987h1.975c5.237,0,7,1.245,7.556,1.975C107.53,59.777,108.345,61.666,105.984,68.363Z" transform="translate(-92.206 -39.9)"/>
      </g>
      <g id="Group_527" data-name="Group 527" transform="translate(44.212 19.877)">
        <g id="Group_525" data-name="Group 525">
          <path id="Path_1095" data-name="Path 1095" class="cls-1" d="M113.972,55.869a14.249,14.249,0,0,1-3.864-1.2,19.408,19.408,0,0,1-4.465-3.005A1.852,1.852,0,0,1,108.219,49c.086.086,5.581,5.195,10.174,2.533a1.856,1.856,0,1,1,1.846,3.22A9.605,9.605,0,0,1,113.972,55.869Z" transform="translate(-104.178 -47.541)"/>
          <path id="Path_1096" data-name="Path 1096" class="cls-2" d="M114.283,55.659a10.444,10.444,0,0,1-1.631-.129,15.717,15.717,0,0,1-4.121-1.288,18.4,18.4,0,0,1-4.679-3.177,2.769,2.769,0,0,1,1.932-4.765,2.592,2.592,0,0,1,1.889.773c.043.043,3.306,3.048,6.654,3.048a4.965,4.965,0,0,0,2.447-.644,2.663,2.663,0,0,1,1.374-.386,2.792,2.792,0,0,1,2.4,1.374,2.58,2.58,0,0,1,.258,2.1,2.657,2.657,0,0,1-1.288,1.674A9.912,9.912,0,0,1,114.283,55.659Zm-8.543-7.47a.915.915,0,0,0-.687.3.894.894,0,0,0,.043,1.288,17.249,17.249,0,0,0,4.207,2.833,11.216,11.216,0,0,0,3.606,1.116,8.448,8.448,0,0,0,5.624-1.03.81.81,0,0,0,.429-.558.941.941,0,0,0-.086-.687.92.92,0,0,0-.816-.472.979.979,0,0,0-.472.129,6.492,6.492,0,0,1-3.349.859c-4.121,0-7.9-3.52-7.942-3.563A.742.742,0,0,0,105.739,48.189Z" transform="translate(-102.986 -46.3)"/>
        </g>
        <g id="Group_526" data-name="Group 526" transform="translate(5.167 3.064)">
          <line id="Line_141" data-name="Line 141" class="cls-1" x1="1.374" y2="3.606" transform="translate(0.849 0.37)"/>
          <rect id="Rectangle_834" data-name="Rectangle 834" class="cls-2" width="3.864" height="1.846" transform="matrix(0.356, -0.934, 0.934, 0.356, 0, 3.611)"/>
        </g>
      </g>
      <g id="Group_528" data-name="Group 528" transform="translate(52.717 33.258)">
        <line id="Line_142" data-name="Line 142" class="cls-1" y1="2.232" x2="3.778" transform="translate(0.473 0.829)"/>
        <rect id="Rectangle_835" data-name="Rectangle 835" class="cls-2" width="4.379" height="1.846" transform="translate(0 2.264) rotate(-31.139)"/>
      </g>
      <g id="Group_529" data-name="Group 529" transform="translate(41.001 28.272)">
        <line id="Line_143" data-name="Line 143" class="cls-1" x2="9.831" y2="1.374" transform="translate(0.126 0.92)"/>
        <rect id="Rectangle_836" data-name="Rectangle 836" class="cls-2" width="1.846" height="9.96" transform="translate(0 1.828) rotate(-81.97)"/>
      </g>
      <g id="Group_530" data-name="Group 530" transform="translate(50.557 13.099)">
        <line id="Line_144" data-name="Line 144" class="cls-1" x2="2.018" y2="4.465" transform="translate(0.831 0.381)"/>
        <rect id="Rectangle_837" data-name="Rectangle 837" class="cls-2" width="1.846" height="4.894" transform="matrix(0.913, -0.407, 0.407, 0.913, 0, 0.752)"/>
      </g>
      <g id="XMLID_1_" transform="translate(61.004 21.98)">
        <g id="Group_531" data-name="Group 531" transform="translate(0.902 0.859)">
          <path id="Path_1097" data-name="Path 1097" class="cls-1" d="M150.339,53.243v7.513h-.258c-3.263,0-5.881-1.674-5.881-3.778,0-2.061,2.619-3.778,5.881-3.778A.545.545,0,0,0,150.339,53.243Z" transform="translate(-144.2 -53.2)"/>
        </g>
        <g id="Group_532" data-name="Group 532">
          <path id="Path_1098" data-name="Path 1098" class="cls-2" d="M148.883,60.559c-3.821,0-6.783-2.061-6.783-4.679s2.962-4.679,6.783-4.679h.3l.9.043v9.316l-.9.043A.838.838,0,0,0,148.883,60.559Zm-.644-7.513c-2.361.215-4.293,1.417-4.293,2.833s1.889,2.619,4.293,2.833Z" transform="translate(-142.1 -51.2)"/>
        </g>
      </g>
      <path id="Path_1099" data-name="Path 1099" class="cls-2" d="M65.3,119.59a2.79,2.79,0,1,1,2.79,2.79A2.785,2.785,0,0,1,65.3,119.59Z" transform="translate(-37.267 -66.658)"/>
      <g id="Group_533" data-name="Group 533" transform="translate(49.713 43.273)">
        <path id="Path_1100" data-name="Path 1100" class="cls-1" d="M120.174,102.889a6.2,6.2,0,0,1,5.924,3.477h-7.3Z" transform="translate(-117.512 -101.988)"/>
        <path id="Path_1101" data-name="Path 1101" class="cls-2" d="M125.846,106.123,115.8,106.08l2.061-5.237.558-.043h.343a7.092,7.092,0,0,1,6.525,4.035Zm-7.384-1.889h4.25a5.251,5.251,0,0,0-3.606-1.631Z" transform="translate(-115.8 -100.8)"/>
      </g>
    </g>
    <g id="Group_539" data-name="Group 539" transform="translate(72.247 467.549)">
      <g id="Group_535" data-name="Group 535" transform="translate(0 18.427)">
        <path id="Path_1102" data-name="Path 1102" class="cls-1" d="M83.417,39.62A8.648,8.648,0,0,1,74.8,48.233H11.614A8.648,8.648,0,0,1,3,39.62V37.714A8.648,8.648,0,0,1,11.614,29.1H74.8a8.648,8.648,0,0,1,8.614,8.614Z" transform="translate(-0.882 -26.982)"/>
        <path id="Path_1103" data-name="Path 1103" class="cls-2" d="M10.732,49.47h0A10.727,10.727,0,0,1,0,38.738V36.832A10.727,10.727,0,0,1,10.732,26.1h63.19A10.727,10.727,0,0,1,84.653,36.832v1.906A10.727,10.727,0,0,1,73.921,49.47Zm63.19-19.133H10.732a6.478,6.478,0,0,0-6.5,6.5v1.906a6.478,6.478,0,0,0,6.5,6.5h63.19a6.478,6.478,0,0,0,6.5-6.5V36.832A6.478,6.478,0,0,0,73.921,30.336Z" transform="translate(0 -26.1)"/>
      </g>
      <g id="Group_536" data-name="Group 536" transform="translate(11.438 30.006)">
        <path id="Path_1104" data-name="Path 1104" class="cls-1" d="M19.3,53.055a7.555,7.555,0,1,1,7.555,7.555A7.563,7.563,0,0,1,19.3,53.055Z" transform="translate(-17.111 -43.382)"/>
        <path id="Path_1105" data-name="Path 1105" class="cls-2" d="M25.873,61.845a9.673,9.673,0,1,1,9.673-9.673A9.687,9.687,0,0,1,25.873,61.845Zm0-15.109a5.436,5.436,0,1,0,5.436,5.436A5.439,5.439,0,0,0,25.873,46.736Z" transform="translate(-16.2 -42.5)"/>
      </g>
      <g id="Group_537" data-name="Group 537" transform="translate(51.54 30.006)">
        <path id="Path_1106" data-name="Path 1106" class="cls-1" d="M76,53.055a7.555,7.555,0,1,1,7.555,7.555A7.563,7.563,0,0,1,76,53.055Z" transform="translate(-73.882 -43.382)"/>
        <path id="Path_1107" data-name="Path 1107" class="cls-2" d="M82.673,61.845h0a9.673,9.673,0,0,1,0-19.345,9.642,9.642,0,0,1,9.673,9.673A9.733,9.733,0,0,1,82.673,61.845Zm0-15.109a5.436,5.436,0,1,0,5.436,5.436A5.439,5.439,0,0,0,82.673,46.736Z" transform="translate(-73 -42.5)"/>
      </g>
      <g id="Group_538" data-name="Group 538" transform="translate(10.732)">
        <path id="Path_1108" data-name="Path 1108" class="cls-1" d="M62.786,3H21.836L18.8,21.427H68.928Z" transform="translate(-16.258 -0.882)"/>
        <path id="Path_1109" data-name="Path 1109" class="cls-2" d="M15.2,22.664,18.942,0H63.281l7.484,22.664ZM22.543,4.236l-2.33,14.191H64.9L60.245,4.236Z" transform="translate(-15.2)"/>
      </g>
      <rect id="Rectangle_838" data-name="Rectangle 838" class="cls-2" width="4.236" height="18.498" transform="translate(36.219 3.036)"/>
    </g>
  </g>
</svg>
