<svg xmlns="http://www.w3.org/2000/svg" viewBox="0 0 11967.649 315.3">
  <defs>
    <style>
      .cls-1 {
        fill: #242424;
      }

      .cls-2 {
        fill: none;
      }
    </style>
  </defs>
  <g id="Group_553" data-name="Group 553" transform="translate(-172 858.3)">
    <path id="Path_1158" data-name="Path 1158" class="cls-1" d="M61.3,20.3H.4L.1,18.8c0-.6-.1-1.2-.1-1.8A9.709,9.709,0,0,1,9.7,7.3a10.974,10.974,0,0,1,4,.8A13.643,13.643,0,0,1,35.4,3.6,8.6,8.6,0,0,1,41.7,1a9.133,9.133,0,0,1,9.1,9.1v.7a19.329,19.329,0,0,1,8.5,6.7ZM3.6,16.7h50a19.105,19.105,0,0,0-5.4-3l-1.7-.5.5-1.7a5.9,5.9,0,0,0,.2-1.4,5.549,5.549,0,0,0-5.5-5.5A5.454,5.454,0,0,0,37,7.3L35.6,9.6,34,7.5a9.958,9.958,0,0,0-17.5,3.8l-.7,2.8-2.2-1.8a5.943,5.943,0,0,0-3.8-1.4A6.229,6.229,0,0,0,3.6,16.7Z" transform="translate(12078.35 -858.3)"/>
    <path id="Path_1145" data-name="Path 1145" class="cls-1" d="M87,32H0l.6-2.3A20.98,20.98,0,0,1,20.9,14.1a10.869,10.869,0,0,1,1.8.1A18.481,18.481,0,0,1,55.9,8a7.569,7.569,0,0,1,1.5-.1,10.537,10.537,0,0,1,10.4,8.6A26.034,26.034,0,0,1,85.5,29.3ZM4.9,28.4H80.5a22.49,22.49,0,0,0-14.6-8.5l-1.5-.2-.1-1.5a7.031,7.031,0,0,0-7-6.7,5.663,5.663,0,0,0-1.8.3l-1.4.4L53.4,11A14.9,14.9,0,0,0,40.6,3.7,14.666,14.666,0,0,0,26,16.4l-.3,1.9L23.9,18a15.262,15.262,0,0,0-3-.3A17.463,17.463,0,0,0,4.9,28.4Z" transform="translate(2781 -834)"/>
    <path id="Path_1146" data-name="Path 1146" class="cls-1" d="M87,32H0l.6-2.3A20.98,20.98,0,0,1,20.9,14.1a10.869,10.869,0,0,1,1.8.1A18.481,18.481,0,0,1,55.9,8a7.569,7.569,0,0,1,1.5-.1,10.537,10.537,0,0,1,10.4,8.6A26.034,26.034,0,0,1,85.5,29.3ZM4.9,28.4H80.5a22.49,22.49,0,0,0-14.6-8.5l-1.5-.2-.1-1.5a7.031,7.031,0,0,0-7-6.7,5.663,5.663,0,0,0-1.8.3l-1.4.4L53.4,11A14.9,14.9,0,0,0,40.6,3.7,14.666,14.666,0,0,0,26,16.4l-.3,1.9L23.9,18a15.262,15.262,0,0,0-3-.3A17.463,17.463,0,0,0,4.9,28.4Z" transform="translate(3635 -834)"/>
    <path id="Path_1149" data-name="Path 1149" class="cls-1" d="M87,32H0l.6-2.3A20.98,20.98,0,0,1,20.9,14.1a10.869,10.869,0,0,1,1.8.1A18.481,18.481,0,0,1,55.9,8a7.569,7.569,0,0,1,1.5-.1,10.537,10.537,0,0,1,10.4,8.6A26.034,26.034,0,0,1,85.5,29.3ZM4.9,28.4H80.5a22.49,22.49,0,0,0-14.6-8.5l-1.5-.2-.1-1.5a7.031,7.031,0,0,0-7-6.7,5.663,5.663,0,0,0-1.8.3l-1.4.4L53.4,11A14.9,14.9,0,0,0,40.6,3.7,14.666,14.666,0,0,0,26,16.4l-.3,1.9L23.9,18a15.262,15.262,0,0,0-3-.3A17.463,17.463,0,0,0,4.9,28.4Z" transform="translate(5953 -834)"/>
    <path id="Path_1151" data-name="Path 1151" class="cls-1" d="M87,32H0l.6-2.3A20.98,20.98,0,0,1,20.9,14.1a10.869,10.869,0,0,1,1.8.1A18.481,18.481,0,0,1,55.9,8a7.569,7.569,0,0,1,1.5-.1,10.537,10.537,0,0,1,10.4,8.6A26.034,26.034,0,0,1,85.5,29.3ZM4.9,28.4H80.5a22.49,22.49,0,0,0-14.6-8.5l-1.5-.2-.1-1.5a7.031,7.031,0,0,0-7-6.7,5.663,5.663,0,0,0-1.8.3l-1.4.4L53.4,11A14.9,14.9,0,0,0,40.6,3.7,14.666,14.666,0,0,0,26,16.4l-.3,1.9L23.9,18a15.262,15.262,0,0,0-3-.3A17.463,17.463,0,0,0,4.9,28.4Z" transform="translate(7439 -834)"/>
    <path id="Path_1153" data-name="Path 1153" class="cls-1" d="M87,32H0l.6-2.3A20.98,20.98,0,0,1,20.9,14.1a10.869,10.869,0,0,1,1.8.1A18.481,18.481,0,0,1,55.9,8a7.569,7.569,0,0,1,1.5-.1,10.537,10.537,0,0,1,10.4,8.6A26.034,26.034,0,0,1,85.5,29.3ZM4.9,28.4H80.5a22.49,22.49,0,0,0-14.6-8.5l-1.5-.2-.1-1.5a7.031,7.031,0,0,0-7-6.7,5.663,5.663,0,0,0-1.8.3l-1.4.4L53.4,11A14.9,14.9,0,0,0,40.6,3.7,14.666,14.666,0,0,0,26,16.4l-.3,1.9L23.9,18a15.262,15.262,0,0,0-3-.3A17.463,17.463,0,0,0,4.9,28.4Z" transform="translate(8239 -834)"/>
    <path id="Path_1156" data-name="Path 1156" class="cls-1" d="M87,32H0l.6-2.3A20.98,20.98,0,0,1,20.9,14.1a10.869,10.869,0,0,1,1.8.1A18.481,18.481,0,0,1,55.9,8a7.569,7.569,0,0,1,1.5-.1,10.537,10.537,0,0,1,10.4,8.6A26.034,26.034,0,0,1,85.5,29.3ZM4.9,28.4H80.5a22.49,22.49,0,0,0-14.6-8.5l-1.5-.2-.1-1.5a7.031,7.031,0,0,0-7-6.7,5.663,5.663,0,0,0-1.8.3l-1.4.4L53.4,11A14.9,14.9,0,0,0,40.6,3.7,14.666,14.666,0,0,0,26,16.4l-.3,1.9L23.9,18a15.262,15.262,0,0,0-3-.3A17.463,17.463,0,0,0,4.9,28.4Z" transform="translate(10494 -834)"/>
    <path id="Path_1157" data-name="Path 1157" class="cls-1" d="M87,32H0l.6-2.3A20.98,20.98,0,0,1,20.9,14.1a10.869,10.869,0,0,1,1.8.1A18.481,18.481,0,0,1,55.9,8a7.569,7.569,0,0,1,1.5-.1,10.537,10.537,0,0,1,10.4,8.6A26.034,26.034,0,0,1,85.5,29.3ZM4.9,28.4H80.5a22.49,22.49,0,0,0-14.6-8.5l-1.5-.2-.1-1.5a7.031,7.031,0,0,0-7-6.7,5.663,5.663,0,0,0-1.8.3l-1.4.4L53.4,11A14.9,14.9,0,0,0,40.6,3.7,14.666,14.666,0,0,0,26,16.4l-.3,1.9L23.9,18a15.262,15.262,0,0,0-3-.3A17.463,17.463,0,0,0,4.9,28.4Z" transform="translate(11388 -834)"/>
    <path id="Path_1141" data-name="Path 1141" class="cls-1" d="M87,32H0l.6-2.3A20.98,20.98,0,0,1,20.9,14.1a10.869,10.869,0,0,1,1.8.1A18.481,18.481,0,0,1,55.9,8a7.569,7.569,0,0,1,1.5-.1,10.537,10.537,0,0,1,10.4,8.6A26.034,26.034,0,0,1,85.5,29.3ZM4.9,28.4H80.5a22.49,22.49,0,0,0-14.6-8.5l-1.5-.2-.1-1.5a7.031,7.031,0,0,0-7-6.7,5.663,5.663,0,0,0-1.8.3l-1.4.4L53.4,11A14.9,14.9,0,0,0,40.6,3.7,14.666,14.666,0,0,0,26,16.4l-.3,1.9L23.9,18a15.262,15.262,0,0,0-3-.3A17.463,17.463,0,0,0,4.9,28.4Z" transform="translate(1232 -812)"/>
    <path id="Path_1144" data-name="Path 1144" class="cls-1" d="M61.3,20.3H.4L.1,18.8c0-.6-.1-1.2-.1-1.8A9.709,9.709,0,0,1,9.7,7.3a10.974,10.974,0,0,1,4,.8A13.643,13.643,0,0,1,35.4,3.6,8.6,8.6,0,0,1,41.7,1a9.133,9.133,0,0,1,9.1,9.1v.7a19.329,19.329,0,0,1,8.5,6.7ZM3.6,16.7h50a19.105,19.105,0,0,0-5.4-3l-1.7-.5.5-1.7a5.9,5.9,0,0,0,.2-1.4,5.549,5.549,0,0,0-5.5-5.5A5.454,5.454,0,0,0,37,7.3L35.6,9.6,34,7.5a9.958,9.958,0,0,0-17.5,3.8l-.7,2.8-2.2-1.8a5.943,5.943,0,0,0-3.8-1.4A6.229,6.229,0,0,0,3.6,16.7Z" transform="translate(2229.35 -730.3)"/>
    <path id="Path_1147" data-name="Path 1147" class="cls-1" d="M61.3,20.3H.4L.1,18.8c0-.6-.1-1.2-.1-1.8A9.709,9.709,0,0,1,9.7,7.3a10.974,10.974,0,0,1,4,.8A13.643,13.643,0,0,1,35.4,3.6,8.6,8.6,0,0,1,41.7,1a9.133,9.133,0,0,1,9.1,9.1v.7a19.329,19.329,0,0,1,8.5,6.7ZM3.6,16.7h50a19.105,19.105,0,0,0-5.4-3l-1.7-.5.5-1.7a5.9,5.9,0,0,0,.2-1.4,5.549,5.549,0,0,0-5.5-5.5A5.454,5.454,0,0,0,37,7.3L35.6,9.6,34,7.5a9.958,9.958,0,0,0-17.5,3.8l-.7,2.8-2.2-1.8a5.943,5.943,0,0,0-3.8-1.4A6.229,6.229,0,0,0,3.6,16.7Z" transform="translate(4348.35 -730.3)"/>
    <path id="Path_1148" data-name="Path 1148" class="cls-1" d="M61.3,20.3H.4L.1,18.8c0-.6-.1-1.2-.1-1.8A9.709,9.709,0,0,1,9.7,7.3a10.974,10.974,0,0,1,4,.8A13.643,13.643,0,0,1,35.4,3.6,8.6,8.6,0,0,1,41.7,1a9.133,9.133,0,0,1,9.1,9.1v.7a19.329,19.329,0,0,1,8.5,6.7ZM3.6,16.7h50a19.105,19.105,0,0,0-5.4-3l-1.7-.5.5-1.7a5.9,5.9,0,0,0,.2-1.4,5.549,5.549,0,0,0-5.5-5.5A5.454,5.454,0,0,0,37,7.3L35.6,9.6,34,7.5a9.958,9.958,0,0,0-17.5,3.8l-.7,2.8-2.2-1.8a5.943,5.943,0,0,0-3.8-1.4A6.229,6.229,0,0,0,3.6,16.7Z" transform="translate(5229.35 -730.3)"/>
    <path id="Path_1150" data-name="Path 1150" class="cls-1" d="M61.3,20.3H.4L.1,18.8c0-.6-.1-1.2-.1-1.8A9.709,9.709,0,0,1,9.7,7.3a10.974,10.974,0,0,1,4,.8A13.643,13.643,0,0,1,35.4,3.6,8.6,8.6,0,0,1,41.7,1a9.133,9.133,0,0,1,9.1,9.1v.7a19.329,19.329,0,0,1,8.5,6.7ZM3.6,16.7h50a19.105,19.105,0,0,0-5.4-3l-1.7-.5.5-1.7a5.9,5.9,0,0,0,.2-1.4,5.549,5.549,0,0,0-5.5-5.5A5.454,5.454,0,0,0,37,7.3L35.6,9.6,34,7.5a9.958,9.958,0,0,0-17.5,3.8l-.7,2.8-2.2-1.8a5.943,5.943,0,0,0-3.8-1.4A6.229,6.229,0,0,0,3.6,16.7Z" transform="translate(7380.35 -730.3)"/>
    <path id="Path_1152" data-name="Path 1152" class="cls-1" d="M61.3,20.3H.4L.1,18.8c0-.6-.1-1.2-.1-1.8A9.709,9.709,0,0,1,9.7,7.3a10.974,10.974,0,0,1,4,.8A13.643,13.643,0,0,1,35.4,3.6,8.6,8.6,0,0,1,41.7,1a9.133,9.133,0,0,1,9.1,9.1v.7a19.329,19.329,0,0,1,8.5,6.7ZM3.6,16.7h50a19.105,19.105,0,0,0-5.4-3l-1.7-.5.5-1.7a5.9,5.9,0,0,0,.2-1.4,5.549,5.549,0,0,0-5.5-5.5A5.454,5.454,0,0,0,37,7.3L35.6,9.6,34,7.5a9.958,9.958,0,0,0-17.5,3.8l-.7,2.8-2.2-1.8a5.943,5.943,0,0,0-3.8-1.4A6.229,6.229,0,0,0,3.6,16.7Z" transform="translate(7769.35 -730.3)"/>
    <path id="Path_1154" data-name="Path 1154" class="cls-1" d="M61.3,20.3H.4L.1,18.8c0-.6-.1-1.2-.1-1.8A9.709,9.709,0,0,1,9.7,7.3a10.974,10.974,0,0,1,4,.8A13.643,13.643,0,0,1,35.4,3.6,8.6,8.6,0,0,1,41.7,1a9.133,9.133,0,0,1,9.1,9.1v.7a19.329,19.329,0,0,1,8.5,6.7ZM3.6,16.7h50a19.105,19.105,0,0,0-5.4-3l-1.7-.5.5-1.7a5.9,5.9,0,0,0,.2-1.4,5.549,5.549,0,0,0-5.5-5.5A5.454,5.454,0,0,0,37,7.3L35.6,9.6,34,7.5a9.958,9.958,0,0,0-17.5,3.8l-.7,2.8-2.2-1.8a5.943,5.943,0,0,0-3.8-1.4A6.229,6.229,0,0,0,3.6,16.7Z" transform="translate(9019.35 -730.3)"/>
    <path id="Path_1155" data-name="Path 1155" class="cls-1" d="M61.3,20.3H.4L.1,18.8c0-.6-.1-1.2-.1-1.8A9.709,9.709,0,0,1,9.7,7.3a10.974,10.974,0,0,1,4,.8A13.643,13.643,0,0,1,35.4,3.6,8.6,8.6,0,0,1,41.7,1a9.133,9.133,0,0,1,9.1,9.1v.7a19.329,19.329,0,0,1,8.5,6.7ZM3.6,16.7h50a19.105,19.105,0,0,0-5.4-3l-1.7-.5.5-1.7a5.9,5.9,0,0,0,.2-1.4,5.549,5.549,0,0,0-5.5-5.5A5.454,5.454,0,0,0,37,7.3L35.6,9.6,34,7.5a9.958,9.958,0,0,0-17.5,3.8l-.7,2.8-2.2-1.8a5.943,5.943,0,0,0-3.8-1.4A6.229,6.229,0,0,0,3.6,16.7Z" transform="translate(9309.35 -730.3)"/>
    <path id="Path_1142" data-name="Path 1142" class="cls-1" d="M61.3,20.3H.4L.1,18.8c0-.6-.1-1.2-.1-1.8A9.709,9.709,0,0,1,9.7,7.3a10.974,10.974,0,0,1,4,.8A13.643,13.643,0,0,1,35.4,3.6,8.6,8.6,0,0,1,41.7,1a9.133,9.133,0,0,1,9.1,9.1v.7a19.329,19.329,0,0,1,8.5,6.7ZM3.6,16.7h50a19.105,19.105,0,0,0-5.4-3l-1.7-.5.5-1.7a5.9,5.9,0,0,0,.2-1.4,5.549,5.549,0,0,0-5.5-5.5A5.454,5.454,0,0,0,37,7.3L35.6,9.6,34,7.5a9.958,9.958,0,0,0-17.5,3.8l-.7,2.8-2.2-1.8a5.943,5.943,0,0,0-3.8-1.4A6.229,6.229,0,0,0,3.6,16.7Z" transform="translate(922.7 -608.3)"/>
    <path id="Path_1143" data-name="Path 1143" class="cls-1" d="M87,32H0l.6-2.3A20.98,20.98,0,0,1,20.9,14.1a10.869,10.869,0,0,1,1.8.1A18.481,18.481,0,0,1,55.9,8a7.569,7.569,0,0,1,1.5-.1,10.537,10.537,0,0,1,10.4,8.6A26.034,26.034,0,0,1,85.5,29.3ZM4.9,28.4H80.5a22.49,22.49,0,0,0-14.6-8.5l-1.5-.2-.1-1.5a7.031,7.031,0,0,0-7-6.7,5.663,5.663,0,0,0-1.8.3l-1.4.4L53.4,11A14.9,14.9,0,0,0,40.6,3.7,14.666,14.666,0,0,0,26,16.4l-.3,1.9L23.9,18a15.262,15.262,0,0,0-3-.3A17.463,17.463,0,0,0,4.9,28.4Z" transform="translate(1802 -575)"/>
    <path id="Path_1159" data-name="Path 1159" class="cls-2" d="M87,32H0l.6-2.3A20.98,20.98,0,0,1,20.9,14.1a10.869,10.869,0,0,1,1.8.1A18.481,18.481,0,0,1,55.9,8a7.569,7.569,0,0,1,1.5-.1,10.537,10.537,0,0,1,10.4,8.6A26.034,26.034,0,0,1,85.5,29.3ZM4.9,28.4H80.5a22.49,22.49,0,0,0-14.6-8.5l-1.5-.2-.1-1.5a7.031,7.031,0,0,0-7-6.7,5.663,5.663,0,0,0-1.8.3l-1.4.4L53.4,11A14.9,14.9,0,0,0,40.6,3.7,14.666,14.666,0,0,0,26,16.4l-.3,1.9L23.9,18a15.262,15.262,0,0,0-3-.3A17.463,17.463,0,0,0,4.9,28.4Z" transform="translate(172 -853)"/>
  </g>
</svg>
