<svg xmlns="http://www.w3.org/2000/svg" viewBox="0 0 11143 78.1"><defs><style>.cls-4{fill:#242424}.cls-1{fill:#ee7601;stroke:#ee7601;stroke-width:4px}.cls-2{fill:#ee4035}.cls-3{fill:#595959}.cls-5{fill:#fff}</style></defs><g id="Group_521" data-name="Group 521" transform="translate(-380 -454.9)"><path id="Rectangle_713" data-name="Rectangle 713" class="cls-1" transform="rotate(90 379.75 838.75)" d="M0 0h69v45H0z"/><g id="Group_520" data-name="Group 520" transform="translate(-5 3)"><g id="Group_256" data-name="Group 256" transform="translate(385 451.9)"><g id="Group_5" data-name="Group 5"><g id="Group_3" data-name="Group 3"><path id="Line_3" data-name="Line 3" class="cls-2" transform="translate(115.8 41.4)" d="M0 32.4V0"/><path id="Rectangle_12" data-name="Rectangle 12" class="cls-3" transform="translate(113.8 41.4)" d="M0 0h4v32.4H0z"/></g><g id="Group_4" data-name="Group 4"><path id="Path_1" data-name="Path 1" class="cls-4" d="M91.2 26.6a24.6 24.6 0 1 1 24.6 24.6 24.582 24.582 0 0 1-24.6-24.6z"/><path id="Path_2" data-name="Path 2" class="cls-3" d="M115.8 53.2a26.6 26.6 0 1 1 26.6-26.6 26.588 26.588 0 0 1-26.6 26.6zm0-49.2a22.6 22.6 0 1 0 22.6 22.6A22.641 22.641 0 0 0 115.8 4z"/></g></g><g id="Group_10" data-name="Group 10"><path id="Union_1" data-name="Union 1" class="cls-4" d="M-423-636.5a22.472 22.472 0 0 1 21.5-16 22.392 22.392 0 0 1 4.948.542q.122-.324.252-.642a22.838 22.838 0 0 1 15.767-12.993A22.553 22.553 0 0 1-358.9-681.9a22.534 22.534 0 0 1 22.5 22.5 24.117 24.117 0 0 1-1.739 7.2h.539a22.8 22.8 0 0 1 19.7 15h-37.3a22.193 22.193 0 0 1-3.7.3h-1.5a18.135 18.135 0 0 1-2.3-.3h-17.425q.118.347.225.7z" transform="translate(443.3 713.3)"/><path id="Path_8" data-name="Path 8" class="cls-3" d="M105.1 66.9l-3.4-2.1A20.491 20.491 0 1 0 63.8 54a14.769 14.769 0 0 0 .1 2.1l-4 .4a20.083 20.083 0 0 1-.1-2.5 24.5 24.5 0 0 1 49 0 23.853 23.853 0 0 1-3.7 12.9z"/><g id="Group_7" data-name="Group 7"><path id="Path_10" data-name="Path 10" class="cls-3" d="M48.9 61.5l-3.7-1.6a24.489 24.489 0 0 1 16.9-14.1l.9 3.9a20.435 20.435 0 0 0-14.1 11.8z"/></g><g id="Group_8" data-name="Group 8"><path id="Path_12" data-name="Path 12" class="cls-3" d="M22.1 77l-3.9-1.1a24.451 24.451 0 0 1 23.6-17.8 24.054 24.054 0 0 1 13.7 4.2l-2.2 3.3a20.168 20.168 0 0 0-11.4-3.5A20.58 20.58 0 0 0 22.1 77z"/></g><g id="Group_9" data-name="Group 9"><path id="Path_14" data-name="Path 14" class="cls-3" d="M123.5 76.8a20.424 20.424 0 0 0-18-13.6l.3-4a24.38 24.38 0 0 1 21.5 16.3z"/></g></g><g id="Group_11" data-name="Group 11"><path id="Line_4" data-name="Line 4" class="cls-2" transform="translate(0 76.1)" d="M0 0h152.2"/><path id="Rectangle_13" data-name="Rectangle 13" class="cls-3" transform="translate(0 74.1)" d="M0 0h152.2v4H0z"/></g></g><path id="Rectangle_714" data-name="Rectangle 714" class="cls-5" transform="rotate(90 376 841)" d="M0 0h50v32H0z"/><g id="Group_248" data-name="Group 248" transform="translate(1210 451.9)"><g id="Group_63" data-name="Group 63"><g id="Group_61" data-name="Group 61"><path id="Line_8" data-name="Line 8" class="cls-2" transform="translate(115.8 41.4)" d="M0 32.4V0"/><path id="Rectangle_52" data-name="Rectangle 52" class="cls-3" transform="translate(113.8 41.4)" d="M0 0h4v32.4H0z"/></g><g id="Group_62" data-name="Group 62"><path id="Path_108" data-name="Path 108" class="cls-4" d="M91.2 26.6a24.6 24.6 0 1 1 24.6 24.6 24.582 24.582 0 0 1-24.6-24.6z"/><path id="Path_109" data-name="Path 109" class="cls-3" d="M115.8 53.2a26.6 26.6 0 1 1 26.6-26.6 26.588 26.588 0 0 1-26.6 26.6zm0-49.2a22.6 22.6 0 1 0 22.6 22.6A22.641 22.641 0 0 0 115.8 4z"/></g></g><g id="Group_64" data-name="Group 64"><path id="Line_9" data-name="Line 9" class="cls-2" transform="translate(0 76.1)" d="M0 0h152.2"/><path id="Rectangle_53" data-name="Rectangle 53" class="cls-3" transform="translate(0 74.1)" d="M0 0h152.2v4H0z"/></g></g><g id="Group_222" data-name="Group 222" transform="translate(2341.8 451.9)"><g id="Group_5-2" data-name="Group 5"><g id="Group_3-2" data-name="Group 3"><path id="Line_3-2" data-name="Line 3" class="cls-2" transform="translate(115.8 41.4)" d="M0 32.4V0"/><path id="Rectangle_12-2" data-name="Rectangle 12" class="cls-3" transform="translate(113.8 41.4)" d="M0 0h4v32.4H0z"/></g><g id="Group_4-2" data-name="Group 4"><path id="Path_1-2" data-name="Path 1" class="cls-4" d="M91.2 26.6a24.6 24.6 0 1 1 24.6 24.6 24.582 24.582 0 0 1-24.6-24.6z"/><path id="Path_2-2" data-name="Path 2" class="cls-3" d="M115.8 53.2a26.6 26.6 0 1 1 26.6-26.6 26.588 26.588 0 0 1-26.6 26.6zm0-49.2a22.6 22.6 0 1 0 22.6 22.6A22.641 22.641 0 0 0 115.8 4z"/></g></g><g id="Group_10-2" data-name="Group 10"><path id="Path_4" data-name="Path 4" class="cls-4" d="M90.1 69.6a21.808 21.808 0 0 1-.9 6.3c0 .1 0 .2-.1.2H88a22.177 22.177 0 0 1-3.7.3h-1.4a18.1 18.1 0 0 1-2.3-.3H46.2a23.238 23.238 0 0 1-1-6.5 23.554 23.554 0 0 1 1.8-8.9 22.837 22.837 0 0 1 15.8-13 19.587 19.587 0 0 1 4.8-.5 22.418 22.418 0 0 1 22.2 19.1 18.413 18.413 0 0 1 .3 3.3z"/><path id="Path_5" data-name="Path 5" class="cls-4" d="M63.4 76.8H20.3a22.514 22.514 0 0 1 43.1 0z"/><path id="Path_6" data-name="Path 6" class="cls-4" d="M125.4 76.1H88.1a22.177 22.177 0 0 1-3.7.3H83c0-.1.1-.2.1-.3a21.78 21.78 0 0 1 6.8-9.8 22.58 22.58 0 0 1 14.3-5.2h1.5a22.8 22.8 0 0 1 19.7 15z"/><g id="Group_6" data-name="Group 6"><path id="Path_7" data-name="Path 7" class="cls-4" d="M62 56.2a17.7 17.7 0 0 1-.1-2.3 22.5 22.5 0 0 1 45 0 22.3 22.3 0 0 1-3.4 11.9"/><path id="Path_8-2" data-name="Path 8" class="cls-3" d="M105.1 66.9l-3.4-2.1A20.491 20.491 0 1 0 63.8 54a14.769 14.769 0 0 0 .1 2.1l-4 .4a20.083 20.083 0 0 1-.1-2.5 24.5 24.5 0 0 1 49 0 23.853 23.853 0 0 1-3.7 12.9z"/></g><g id="Group_7-2" data-name="Group 7"><path id="Path_10-2" data-name="Path 10" class="cls-3" d="M48.9 61.5l-3.7-1.6a24.489 24.489 0 0 1 16.9-14.1l.9 3.9a20.435 20.435 0 0 0-14.1 11.8z"/></g><g id="Group_8-2" data-name="Group 8"><path id="Path_12-2" data-name="Path 12" class="cls-3" d="M22.1 77l-3.9-1.1a24.451 24.451 0 0 1 23.6-17.8 24.054 24.054 0 0 1 13.7 4.2l-2.2 3.3a20.168 20.168 0 0 0-11.4-3.5A20.58 20.58 0 0 0 22.1 77z"/></g><g id="Group_9-2" data-name="Group 9"><path id="Path_14-2" data-name="Path 14" class="cls-3" d="M123.5 76.8a20.424 20.424 0 0 0-18-13.6l.3-4a24.38 24.38 0 0 1 21.5 16.3z"/></g></g><g id="Group_11-2" data-name="Group 11"><path id="Line_4-2" data-name="Line 4" class="cls-2" transform="translate(0 76.1)" d="M0 0h152.2"/><path id="Rectangle_13-2" data-name="Rectangle 13" class="cls-3" transform="translate(0 74.1)" d="M0 0h152.2v4H0z"/></g></g><g id="Group_239" data-name="Group 239" transform="translate(1850.6 455)"><g id="Group_33" data-name="Group 33"><g id="Group_31" data-name="Group 31"><path id="Line_6" data-name="Line 6" class="cls-2" transform="translate(177 41.4)" d="M0 32.4V0"/><path id="Rectangle_25" data-name="Rectangle 25" class="cls-3" transform="translate(175 41.4)" d="M0 0h4v32.4H0z"/></g><g id="Group_32" data-name="Group 32"><path id="Path_38" data-name="Path 38" class="cls-4" d="M152.4 26.6A24.6 24.6 0 1 1 177 51.2a24.582 24.582 0 0 1-24.6-24.6z"/><path id="Path_39" data-name="Path 39" class="cls-3" d="M177 53.2a26.6 26.6 0 1 1 26.6-26.6A26.588 26.588 0 0 1 177 53.2zM177 4a22.6 22.6 0 1 0 22.6 22.6A22.641 22.641 0 0 0 177 4z"/></g></g><g id="Group_38" data-name="Group 38"><path id="Path_41" data-name="Path 41" class="cls-4" d="M90.1 66.5a21.808 21.808 0 0 1-.9 6.3c0 .1 0 .2-.1.2H88a22.177 22.177 0 0 1-3.7.3h-1.4a18.1 18.1 0 0 1-2.3-.3H46.2a23.238 23.238 0 0 1-1-6.5 23.554 23.554 0 0 1 1.8-8.9 22.837 22.837 0 0 1 15.8-13 19.587 19.587 0 0 1 4.8-.5 22.418 22.418 0 0 1 22.2 19.1 18.413 18.413 0 0 1 .3 3.3z"/><path id="Path_42" data-name="Path 42" class="cls-4" d="M63.4 73.7H20.3a22.514 22.514 0 0 1 43.1 0z"/><path id="Path_43" data-name="Path 43" class="cls-4" d="M125.4 73H88.1a22.177 22.177 0 0 1-3.7.3H83c0-.1.1-.2.1-.3a21.78 21.78 0 0 1 6.8-9.8 22.58 22.58 0 0 1 14.3-5.2h1.5a22.8 22.8 0 0 1 19.7 15z"/><g id="Group_34" data-name="Group 34"><path id="Path_44" data-name="Path 44" class="cls-4" d="M62 53.2a17.7 17.7 0 0 1-.1-2.3 22.5 22.5 0 0 1 45 0 22.3 22.3 0 0 1-3.4 11.9"/><path id="Path_45" data-name="Path 45" class="cls-3" d="M105.1 63.8l-3.4-2.1a20.491 20.491 0 1 0-37.9-10.8 14.769 14.769 0 0 0 .1 2.1l-4 .4a20.083 20.083 0 0 1-.1-2.5 24.5 24.5 0 0 1 49 0 23.853 23.853 0 0 1-3.7 12.9z"/></g><g id="Group_35" data-name="Group 35"><path id="Path_47" data-name="Path 47" class="cls-3" d="M48.9 58.4l-3.7-1.6a24.489 24.489 0 0 1 16.9-14.1l.9 3.9a20.679 20.679 0 0 0-14.1 11.8z"/></g><g id="Group_36" data-name="Group 36"><path id="Path_49" data-name="Path 49" class="cls-3" d="M22.1 73.9l-3.9-1.1A24.63 24.63 0 0 1 41.8 55a24.054 24.054 0 0 1 13.7 4.2l-2.2 3.3A20.168 20.168 0 0 0 41.9 59a20.58 20.58 0 0 0-19.8 14.9z"/></g><g id="Group_37" data-name="Group 37"><path id="Path_51" data-name="Path 51" class="cls-3" d="M123.5 73.7a20.424 20.424 0 0 0-18-13.6l.3-4a24.38 24.38 0 0 1 21.5 16.3z"/></g></g><g id="Group_39" data-name="Group 39"><path id="Line_7" data-name="Line 7" class="cls-2" transform="translate(0 73)" d="M0 0h348.4"/><path id="Rectangle_26" data-name="Rectangle 26" class="cls-3" transform="translate(0 71)" d="M0 0h348.4v4H0z"/></g></g><g id="Group_247" data-name="Group 247" transform="translate(1511 -230)"><path id="Rectangle_50" data-name="Rectangle 50" class="cls-1" transform="rotate(90 286.25 975.25)" d="M0 0h69v45H0z"/><path id="Rectangle_51" data-name="Rectangle 51" class="cls-5" transform="rotate(90 280 975)" d="M0 0h50v32H0z"/></g><g id="Group_223" data-name="Group 223" transform="translate(2717 451.9)"><g id="Group_63-2" data-name="Group 63"><g id="Group_61-2" data-name="Group 61"><path id="Line_8-2" data-name="Line 8" class="cls-2" transform="translate(115.8 41.4)" d="M0 32.4V0"/><path id="Rectangle_52-2" data-name="Rectangle 52" class="cls-3" transform="translate(113.8 41.4)" d="M0 0h4v32.4H0z"/></g><g id="Group_62-2" data-name="Group 62"><path id="Path_108-2" data-name="Path 108" class="cls-4" d="M91.2 26.6a24.6 24.6 0 1 1 24.6 24.6 24.582 24.582 0 0 1-24.6-24.6z"/><path id="Path_109-2" data-name="Path 109" class="cls-3" d="M115.8 53.2a26.6 26.6 0 1 1 26.6-26.6 26.588 26.588 0 0 1-26.6 26.6zm0-49.2a22.6 22.6 0 1 0 22.6 22.6A22.641 22.641 0 0 0 115.8 4z"/></g></g><g id="Group_64-2" data-name="Group 64"><path id="Line_9-2" data-name="Line 9" class="cls-2" transform="translate(0 76.1)" d="M0 0h152.2"/><path id="Rectangle_53-2" data-name="Rectangle 53" class="cls-3" transform="translate(0 74.1)" d="M0 0h152.2v4H0z"/></g></g><g id="Group_224" data-name="Group 224" transform="translate(3907.8 451.9)"><g id="Group_5-3" data-name="Group 5"><g id="Group_3-3" data-name="Group 3"><path id="Line_3-3" data-name="Line 3" class="cls-2" transform="translate(115.8 41.4)" d="M0 32.4V0"/><path id="Rectangle_12-3" data-name="Rectangle 12" class="cls-3" transform="translate(113.8 41.4)" d="M0 0h4v32.4H0z"/></g><g id="Group_4-3" data-name="Group 4"><path id="Path_1-3" data-name="Path 1" class="cls-4" d="M91.2 26.6a24.6 24.6 0 1 1 24.6 24.6 24.582 24.582 0 0 1-24.6-24.6z"/><path id="Path_2-3" data-name="Path 2" class="cls-3" d="M115.8 53.2a26.6 26.6 0 1 1 26.6-26.6 26.588 26.588 0 0 1-26.6 26.6zm0-49.2a22.6 22.6 0 1 0 22.6 22.6A22.641 22.641 0 0 0 115.8 4z"/></g></g><g id="Group_10-3" data-name="Group 10"><path id="Path_4-2" data-name="Path 4" class="cls-4" d="M90.1 69.6a21.808 21.808 0 0 1-.9 6.3c0 .1 0 .2-.1.2H88a22.177 22.177 0 0 1-3.7.3h-1.4a18.1 18.1 0 0 1-2.3-.3H46.2a23.238 23.238 0 0 1-1-6.5 23.554 23.554 0 0 1 1.8-8.9 22.837 22.837 0 0 1 15.8-13 19.587 19.587 0 0 1 4.8-.5 22.418 22.418 0 0 1 22.2 19.1 18.413 18.413 0 0 1 .3 3.3z"/><path id="Path_5-2" data-name="Path 5" class="cls-4" d="M63.4 76.8H20.3a22.514 22.514 0 0 1 43.1 0z"/><path id="Path_6-2" data-name="Path 6" class="cls-4" d="M125.4 76.1H88.1a22.177 22.177 0 0 1-3.7.3H83c0-.1.1-.2.1-.3a21.78 21.78 0 0 1 6.8-9.8 22.58 22.58 0 0 1 14.3-5.2h1.5a22.8 22.8 0 0 1 19.7 15z"/><g id="Group_6-2" data-name="Group 6"><path id="Path_7-2" data-name="Path 7" class="cls-4" d="M62 56.2a17.7 17.7 0 0 1-.1-2.3 22.5 22.5 0 0 1 45 0 22.3 22.3 0 0 1-3.4 11.9"/><path id="Path_8-3" data-name="Path 8" class="cls-3" d="M105.1 66.9l-3.4-2.1A20.491 20.491 0 1 0 63.8 54a14.769 14.769 0 0 0 .1 2.1l-4 .4a20.083 20.083 0 0 1-.1-2.5 24.5 24.5 0 0 1 49 0 23.853 23.853 0 0 1-3.7 12.9z"/></g><g id="Group_7-3" data-name="Group 7"><path id="Path_10-3" data-name="Path 10" class="cls-3" d="M48.9 61.5l-3.7-1.6a24.489 24.489 0 0 1 16.9-14.1l.9 3.9a20.435 20.435 0 0 0-14.1 11.8z"/></g><g id="Group_8-3" data-name="Group 8"><path id="Path_12-3" data-name="Path 12" class="cls-3" d="M22.1 77l-3.9-1.1a24.451 24.451 0 0 1 23.6-17.8 24.054 24.054 0 0 1 13.7 4.2l-2.2 3.3a20.168 20.168 0 0 0-11.4-3.5A20.58 20.58 0 0 0 22.1 77z"/></g><g id="Group_9-3" data-name="Group 9"><path id="Path_14-3" data-name="Path 14" class="cls-3" d="M123.5 76.8a20.424 20.424 0 0 0-18-13.6l.3-4a24.38 24.38 0 0 1 21.5 16.3z"/></g></g><g id="Group_11-3" data-name="Group 11"><path id="Line_4-3" data-name="Line 4" class="cls-2" transform="translate(0 76.1)" d="M0 0h152.2"/><path id="Rectangle_13-3" data-name="Rectangle 13" class="cls-3" transform="translate(0 74.1)" d="M0 0h152.2v4H0z"/></g></g><g id="Group_240" data-name="Group 240" transform="translate(3268.6 455)"><g id="Group_33-2" data-name="Group 33"><g id="Group_31-2" data-name="Group 31"><path id="Line_6-2" data-name="Line 6" class="cls-2" transform="translate(177 41.4)" d="M0 32.4V0"/><path id="Rectangle_25-2" data-name="Rectangle 25" class="cls-3" transform="translate(175 41.4)" d="M0 0h4v32.4H0z"/></g><g id="Group_32-2" data-name="Group 32"><path id="Path_38-2" data-name="Path 38" class="cls-4" d="M152.4 26.6A24.6 24.6 0 1 1 177 51.2a24.582 24.582 0 0 1-24.6-24.6z"/><path id="Path_39-2" data-name="Path 39" class="cls-3" d="M177 53.2a26.6 26.6 0 1 1 26.6-26.6A26.588 26.588 0 0 1 177 53.2zM177 4a22.6 22.6 0 1 0 22.6 22.6A22.641 22.641 0 0 0 177 4z"/></g></g><g id="Group_38-2" data-name="Group 38"><path id="Path_41-2" data-name="Path 41" class="cls-4" d="M90.1 66.5a21.808 21.808 0 0 1-.9 6.3c0 .1 0 .2-.1.2H88a22.177 22.177 0 0 1-3.7.3h-1.4a18.1 18.1 0 0 1-2.3-.3H46.2a23.238 23.238 0 0 1-1-6.5 23.554 23.554 0 0 1 1.8-8.9 22.837 22.837 0 0 1 15.8-13 19.587 19.587 0 0 1 4.8-.5 22.418 22.418 0 0 1 22.2 19.1 18.413 18.413 0 0 1 .3 3.3z"/><path id="Path_42-2" data-name="Path 42" class="cls-4" d="M63.4 73.7H20.3a22.514 22.514 0 0 1 43.1 0z"/><path id="Path_43-2" data-name="Path 43" class="cls-4" d="M125.4 73H88.1a22.177 22.177 0 0 1-3.7.3H83c0-.1.1-.2.1-.3a21.78 21.78 0 0 1 6.8-9.8 22.58 22.58 0 0 1 14.3-5.2h1.5a22.8 22.8 0 0 1 19.7 15z"/><g id="Group_34-2" data-name="Group 34"><path id="Path_44-2" data-name="Path 44" class="cls-4" d="M62 53.2a17.7 17.7 0 0 1-.1-2.3 22.5 22.5 0 0 1 45 0 22.3 22.3 0 0 1-3.4 11.9"/><path id="Path_45-2" data-name="Path 45" class="cls-3" d="M105.1 63.8l-3.4-2.1a20.491 20.491 0 1 0-37.9-10.8 14.769 14.769 0 0 0 .1 2.1l-4 .4a20.083 20.083 0 0 1-.1-2.5 24.5 24.5 0 0 1 49 0 23.853 23.853 0 0 1-3.7 12.9z"/></g><g id="Group_35-2" data-name="Group 35"><path id="Path_47-2" data-name="Path 47" class="cls-3" d="M48.9 58.4l-3.7-1.6a24.489 24.489 0 0 1 16.9-14.1l.9 3.9a20.679 20.679 0 0 0-14.1 11.8z"/></g><g id="Group_36-2" data-name="Group 36"><path id="Path_49-2" data-name="Path 49" class="cls-3" d="M22.1 73.9l-3.9-1.1A24.63 24.63 0 0 1 41.8 55a24.054 24.054 0 0 1 13.7 4.2l-2.2 3.3A20.168 20.168 0 0 0 41.9 59a20.58 20.58 0 0 0-19.8 14.9z"/></g><g id="Group_37-2" data-name="Group 37"><path id="Path_51-2" data-name="Path 51" class="cls-3" d="M123.5 73.7a20.424 20.424 0 0 0-18-13.6l.3-4a24.38 24.38 0 0 1 21.5 16.3z"/></g></g><g id="Group_39-2" data-name="Group 39"><path id="Line_7-2" data-name="Line 7" class="cls-2" transform="translate(0 73)" d="M0 0h348.4"/><path id="Rectangle_26-2" data-name="Rectangle 26" class="cls-3" transform="translate(0 71)" d="M0 0h348.4v4H0z"/></g></g><g id="Group_225" data-name="Group 225" transform="translate(5415.8 451.9)"><g id="Group_5-4" data-name="Group 5"><g id="Group_3-4" data-name="Group 3"><path id="Line_3-4" data-name="Line 3" class="cls-2" transform="translate(115.8 41.4)" d="M0 32.4V0"/><path id="Rectangle_12-4" data-name="Rectangle 12" class="cls-3" transform="translate(113.8 41.4)" d="M0 0h4v32.4H0z"/></g><g id="Group_4-4" data-name="Group 4"><path id="Path_1-4" data-name="Path 1" class="cls-4" d="M91.2 26.6a24.6 24.6 0 1 1 24.6 24.6 24.582 24.582 0 0 1-24.6-24.6z"/><path id="Path_2-4" data-name="Path 2" class="cls-3" d="M115.8 53.2a26.6 26.6 0 1 1 26.6-26.6 26.588 26.588 0 0 1-26.6 26.6zm0-49.2a22.6 22.6 0 1 0 22.6 22.6A22.641 22.641 0 0 0 115.8 4z"/></g></g><g id="Group_10-4" data-name="Group 10"><path id="Path_4-3" data-name="Path 4" class="cls-4" d="M90.1 69.6a21.808 21.808 0 0 1-.9 6.3c0 .1 0 .2-.1.2H88a22.177 22.177 0 0 1-3.7.3h-1.4a18.1 18.1 0 0 1-2.3-.3H46.2a23.238 23.238 0 0 1-1-6.5 23.554 23.554 0 0 1 1.8-8.9 22.837 22.837 0 0 1 15.8-13 19.587 19.587 0 0 1 4.8-.5 22.418 22.418 0 0 1 22.2 19.1 18.413 18.413 0 0 1 .3 3.3z"/><path id="Path_5-3" data-name="Path 5" class="cls-4" d="M63.4 76.8H20.3a22.514 22.514 0 0 1 43.1 0z"/><path id="Path_6-3" data-name="Path 6" class="cls-4" d="M125.4 76.1H88.1a22.177 22.177 0 0 1-3.7.3H83c0-.1.1-.2.1-.3a21.78 21.78 0 0 1 6.8-9.8 22.58 22.58 0 0 1 14.3-5.2h1.5a22.8 22.8 0 0 1 19.7 15z"/><g id="Group_6-3" data-name="Group 6"><path id="Path_7-3" data-name="Path 7" class="cls-4" d="M62 56.2a17.7 17.7 0 0 1-.1-2.3 22.5 22.5 0 0 1 45 0 22.3 22.3 0 0 1-3.4 11.9"/><path id="Path_8-4" data-name="Path 8" class="cls-3" d="M105.1 66.9l-3.4-2.1A20.491 20.491 0 1 0 63.8 54a14.769 14.769 0 0 0 .1 2.1l-4 .4a20.083 20.083 0 0 1-.1-2.5 24.5 24.5 0 0 1 49 0 23.853 23.853 0 0 1-3.7 12.9z"/></g><g id="Group_7-4" data-name="Group 7"><path id="Path_10-4" data-name="Path 10" class="cls-3" d="M48.9 61.5l-3.7-1.6a24.489 24.489 0 0 1 16.9-14.1l.9 3.9a20.435 20.435 0 0 0-14.1 11.8z"/></g><g id="Group_8-4" data-name="Group 8"><path id="Path_12-4" data-name="Path 12" class="cls-3" d="M22.1 77l-3.9-1.1a24.451 24.451 0 0 1 23.6-17.8 24.054 24.054 0 0 1 13.7 4.2l-2.2 3.3a20.168 20.168 0 0 0-11.4-3.5A20.58 20.58 0 0 0 22.1 77z"/></g><g id="Group_9-4" data-name="Group 9"><path id="Path_14-4" data-name="Path 14" class="cls-3" d="M123.5 76.8a20.424 20.424 0 0 0-18-13.6l.3-4a24.38 24.38 0 0 1 21.5 16.3z"/></g></g><g id="Group_11-4" data-name="Group 11"><path id="Line_4-4" data-name="Line 4" class="cls-2" transform="translate(0 76.1)" d="M0 0h152.2"/><path id="Rectangle_13-4" data-name="Rectangle 13" class="cls-3" transform="translate(0 74.1)" d="M0 0h152.2v4H0z"/></g></g><g id="Group_241" data-name="Group 241" transform="translate(4389.6 455)"><g id="Group_33-3" data-name="Group 33"><g id="Group_31-3" data-name="Group 31"><path id="Line_6-3" data-name="Line 6" class="cls-2" transform="translate(177 41.4)" d="M0 32.4V0"/><path id="Rectangle_25-3" data-name="Rectangle 25" class="cls-3" transform="translate(175 41.4)" d="M0 0h4v32.4H0z"/></g><g id="Group_32-3" data-name="Group 32"><path id="Path_38-3" data-name="Path 38" class="cls-4" d="M152.4 26.6A24.6 24.6 0 1 1 177 51.2a24.582 24.582 0 0 1-24.6-24.6z"/><path id="Path_39-3" data-name="Path 39" class="cls-3" d="M177 53.2a26.6 26.6 0 1 1 26.6-26.6A26.588 26.588 0 0 1 177 53.2zM177 4a22.6 22.6 0 1 0 22.6 22.6A22.641 22.641 0 0 0 177 4z"/></g></g><g id="Group_38-3" data-name="Group 38"><path id="Path_41-3" data-name="Path 41" class="cls-4" d="M90.1 66.5a21.808 21.808 0 0 1-.9 6.3c0 .1 0 .2-.1.2H88a22.177 22.177 0 0 1-3.7.3h-1.4a18.1 18.1 0 0 1-2.3-.3H46.2a23.238 23.238 0 0 1-1-6.5 23.554 23.554 0 0 1 1.8-8.9 22.837 22.837 0 0 1 15.8-13 19.587 19.587 0 0 1 4.8-.5 22.418 22.418 0 0 1 22.2 19.1 18.413 18.413 0 0 1 .3 3.3z"/><path id="Path_42-3" data-name="Path 42" class="cls-4" d="M63.4 73.7H20.3a22.514 22.514 0 0 1 43.1 0z"/><path id="Path_43-3" data-name="Path 43" class="cls-4" d="M125.4 73H88.1a22.177 22.177 0 0 1-3.7.3H83c0-.1.1-.2.1-.3a21.78 21.78 0 0 1 6.8-9.8 22.58 22.58 0 0 1 14.3-5.2h1.5a22.8 22.8 0 0 1 19.7 15z"/><g id="Group_34-3" data-name="Group 34"><path id="Path_44-3" data-name="Path 44" class="cls-4" d="M62 53.2a17.7 17.7 0 0 1-.1-2.3 22.5 22.5 0 0 1 45 0 22.3 22.3 0 0 1-3.4 11.9"/><path id="Path_45-3" data-name="Path 45" class="cls-3" d="M105.1 63.8l-3.4-2.1a20.491 20.491 0 1 0-37.9-10.8 14.769 14.769 0 0 0 .1 2.1l-4 .4a20.083 20.083 0 0 1-.1-2.5 24.5 24.5 0 0 1 49 0 23.853 23.853 0 0 1-3.7 12.9z"/></g><g id="Group_35-3" data-name="Group 35"><path id="Path_47-3" data-name="Path 47" class="cls-3" d="M48.9 58.4l-3.7-1.6a24.489 24.489 0 0 1 16.9-14.1l.9 3.9a20.679 20.679 0 0 0-14.1 11.8z"/></g><g id="Group_36-3" data-name="Group 36"><path id="Path_49-3" data-name="Path 49" class="cls-3" d="M22.1 73.9l-3.9-1.1A24.63 24.63 0 0 1 41.8 55a24.054 24.054 0 0 1 13.7 4.2l-2.2 3.3A20.168 20.168 0 0 0 41.9 59a20.58 20.58 0 0 0-19.8 14.9z"/></g><g id="Group_37-3" data-name="Group 37"><path id="Path_51-3" data-name="Path 51" class="cls-3" d="M123.5 73.7a20.424 20.424 0 0 0-18-13.6l.3-4a24.38 24.38 0 0 1 21.5 16.3z"/></g></g><g id="Group_39-3" data-name="Group 39"><path id="Line_7-3" data-name="Line 7" class="cls-2" transform="translate(0 73)" d="M0 0h348.4"/><path id="Rectangle_26-3" data-name="Rectangle 26" class="cls-3" transform="translate(0 71)" d="M0 0h348.4v4H0z"/></g></g><g id="Group_242" data-name="Group 242" transform="translate(6233.8 455)"><g id="Group_33-4" data-name="Group 33"><g id="Group_31-4" data-name="Group 31"><path id="Line_6-4" data-name="Line 6" class="cls-2" transform="translate(177 41.4)" d="M0 32.4V0"/><path id="Rectangle_25-4" data-name="Rectangle 25" class="cls-3" transform="translate(175 41.4)" d="M0 0h4v32.4H0z"/></g><g id="Group_32-4" data-name="Group 32"><path id="Path_38-4" data-name="Path 38" class="cls-4" d="M152.4 26.6A24.6 24.6 0 1 1 177 51.2a24.582 24.582 0 0 1-24.6-24.6z"/><path id="Path_39-4" data-name="Path 39" class="cls-3" d="M177 53.2a26.6 26.6 0 1 1 26.6-26.6A26.588 26.588 0 0 1 177 53.2zM177 4a22.6 22.6 0 1 0 22.6 22.6A22.641 22.641 0 0 0 177 4z"/></g></g><g id="Group_38-4" data-name="Group 38"><path id="Path_41-4" data-name="Path 41" class="cls-4" d="M90.1 66.5a21.808 21.808 0 0 1-.9 6.3c0 .1 0 .2-.1.2H88a22.177 22.177 0 0 1-3.7.3h-1.4a18.1 18.1 0 0 1-2.3-.3H46.2a23.238 23.238 0 0 1-1-6.5 23.554 23.554 0 0 1 1.8-8.9 22.837 22.837 0 0 1 15.8-13 19.587 19.587 0 0 1 4.8-.5 22.418 22.418 0 0 1 22.2 19.1 18.413 18.413 0 0 1 .3 3.3z"/><path id="Path_42-4" data-name="Path 42" class="cls-4" d="M63.4 73.7H20.3a22.514 22.514 0 0 1 43.1 0z"/><path id="Path_43-4" data-name="Path 43" class="cls-4" d="M125.4 73H88.1a22.177 22.177 0 0 1-3.7.3H83c0-.1.1-.2.1-.3a21.78 21.78 0 0 1 6.8-9.8 22.58 22.58 0 0 1 14.3-5.2h1.5a22.8 22.8 0 0 1 19.7 15z"/><g id="Group_34-4" data-name="Group 34"><path id="Path_44-4" data-name="Path 44" class="cls-4" d="M62 53.2a17.7 17.7 0 0 1-.1-2.3 22.5 22.5 0 0 1 45 0 22.3 22.3 0 0 1-3.4 11.9"/><path id="Path_45-4" data-name="Path 45" class="cls-3" d="M105.1 63.8l-3.4-2.1a20.491 20.491 0 1 0-37.9-10.8 14.769 14.769 0 0 0 .1 2.1l-4 .4a20.083 20.083 0 0 1-.1-2.5 24.5 24.5 0 0 1 49 0 23.853 23.853 0 0 1-3.7 12.9z"/></g><g id="Group_35-4" data-name="Group 35"><path id="Path_47-4" data-name="Path 47" class="cls-3" d="M48.9 58.4l-3.7-1.6a24.489 24.489 0 0 1 16.9-14.1l.9 3.9a20.679 20.679 0 0 0-14.1 11.8z"/></g><g id="Group_36-4" data-name="Group 36"><path id="Path_49-4" data-name="Path 49" class="cls-3" d="M22.1 73.9l-3.9-1.1A24.63 24.63 0 0 1 41.8 55a24.054 24.054 0 0 1 13.7 4.2l-2.2 3.3A20.168 20.168 0 0 0 41.9 59a20.58 20.58 0 0 0-19.8 14.9z"/></g><g id="Group_37-4" data-name="Group 37"><path id="Path_51-4" data-name="Path 51" class="cls-3" d="M123.5 73.7a20.424 20.424 0 0 0-18-13.6l.3-4a24.38 24.38 0 0 1 21.5 16.3z"/></g></g><g id="Group_39-4" data-name="Group 39"><path id="Line_7-4" data-name="Line 7" class="cls-2" transform="translate(0 73)" d="M0 0h348.4"/><path id="Rectangle_26-4" data-name="Rectangle 26" class="cls-3" transform="translate(0 71)" d="M0 0h348.4v4H0z"/></g></g><g id="Group_226" data-name="Group 226" transform="translate(6748.8 451.9)"><g id="Group_5-5" data-name="Group 5"><g id="Group_3-5" data-name="Group 3"><path id="Line_3-5" data-name="Line 3" class="cls-2" transform="translate(115.8 41.4)" d="M0 32.4V0"/><path id="Rectangle_12-5" data-name="Rectangle 12" class="cls-3" transform="translate(113.8 41.4)" d="M0 0h4v32.4H0z"/></g><g id="Group_4-5" data-name="Group 4"><path id="Path_1-5" data-name="Path 1" class="cls-4" d="M91.2 26.6a24.6 24.6 0 1 1 24.6 24.6 24.582 24.582 0 0 1-24.6-24.6z"/><path id="Path_2-5" data-name="Path 2" class="cls-3" d="M115.8 53.2a26.6 26.6 0 1 1 26.6-26.6 26.588 26.588 0 0 1-26.6 26.6zm0-49.2a22.6 22.6 0 1 0 22.6 22.6A22.641 22.641 0 0 0 115.8 4z"/></g></g><g id="Group_10-5" data-name="Group 10"><path id="Path_4-4" data-name="Path 4" class="cls-4" d="M90.1 69.6a21.808 21.808 0 0 1-.9 6.3c0 .1 0 .2-.1.2H88a22.177 22.177 0 0 1-3.7.3h-1.4a18.1 18.1 0 0 1-2.3-.3H46.2a23.238 23.238 0 0 1-1-6.5 23.554 23.554 0 0 1 1.8-8.9 22.837 22.837 0 0 1 15.8-13 19.587 19.587 0 0 1 4.8-.5 22.418 22.418 0 0 1 22.2 19.1 18.413 18.413 0 0 1 .3 3.3z"/><path id="Path_5-4" data-name="Path 5" class="cls-4" d="M63.4 76.8H20.3a22.514 22.514 0 0 1 43.1 0z"/><path id="Path_6-4" data-name="Path 6" class="cls-4" d="M125.4 76.1H88.1a22.177 22.177 0 0 1-3.7.3H83c0-.1.1-.2.1-.3a21.78 21.78 0 0 1 6.8-9.8 22.58 22.58 0 0 1 14.3-5.2h1.5a22.8 22.8 0 0 1 19.7 15z"/><g id="Group_6-4" data-name="Group 6"><path id="Path_7-4" data-name="Path 7" class="cls-4" d="M62 56.2a17.7 17.7 0 0 1-.1-2.3 22.5 22.5 0 0 1 45 0 22.3 22.3 0 0 1-3.4 11.9"/><path id="Path_8-5" data-name="Path 8" class="cls-3" d="M105.1 66.9l-3.4-2.1A20.491 20.491 0 1 0 63.8 54a14.769 14.769 0 0 0 .1 2.1l-4 .4a20.083 20.083 0 0 1-.1-2.5 24.5 24.5 0 0 1 49 0 23.853 23.853 0 0 1-3.7 12.9z"/></g><g id="Group_7-5" data-name="Group 7"><path id="Path_10-5" data-name="Path 10" class="cls-3" d="M48.9 61.5l-3.7-1.6a24.489 24.489 0 0 1 16.9-14.1l.9 3.9a20.435 20.435 0 0 0-14.1 11.8z"/></g><g id="Group_8-5" data-name="Group 8"><path id="Path_12-5" data-name="Path 12" class="cls-3" d="M22.1 77l-3.9-1.1a24.451 24.451 0 0 1 23.6-17.8 24.054 24.054 0 0 1 13.7 4.2l-2.2 3.3a20.168 20.168 0 0 0-11.4-3.5A20.58 20.58 0 0 0 22.1 77z"/></g><g id="Group_9-5" data-name="Group 9"><path id="Path_14-5" data-name="Path 14" class="cls-3" d="M123.5 76.8a20.424 20.424 0 0 0-18-13.6l.3-4a24.38 24.38 0 0 1 21.5 16.3z"/></g></g><g id="Group_11-5" data-name="Group 11"><path id="Line_4-5" data-name="Line 4" class="cls-2" transform="translate(0 76.1)" d="M0 0h152.2"/><path id="Rectangle_13-5" data-name="Rectangle 13" class="cls-3" transform="translate(0 74.1)" d="M0 0h152.2v4H0z"/></g></g><g id="Group_243" data-name="Group 243" transform="translate(7636.8 455)"><g id="Group_33-5" data-name="Group 33"><g id="Group_31-5" data-name="Group 31"><path id="Line_6-5" data-name="Line 6" class="cls-2" transform="translate(177 41.4)" d="M0 32.4V0"/><path id="Rectangle_25-5" data-name="Rectangle 25" class="cls-3" transform="translate(175 41.4)" d="M0 0h4v32.4H0z"/></g><g id="Group_32-5" data-name="Group 32"><path id="Path_38-5" data-name="Path 38" class="cls-4" d="M152.4 26.6A24.6 24.6 0 1 1 177 51.2a24.582 24.582 0 0 1-24.6-24.6z"/><path id="Path_39-5" data-name="Path 39" class="cls-3" d="M177 53.2a26.6 26.6 0 1 1 26.6-26.6A26.588 26.588 0 0 1 177 53.2zM177 4a22.6 22.6 0 1 0 22.6 22.6A22.641 22.641 0 0 0 177 4z"/></g></g><g id="Group_38-5" data-name="Group 38"><path id="Path_41-5" data-name="Path 41" class="cls-4" d="M90.1 66.5a21.808 21.808 0 0 1-.9 6.3c0 .1 0 .2-.1.2H88a22.177 22.177 0 0 1-3.7.3h-1.4a18.1 18.1 0 0 1-2.3-.3H46.2a23.238 23.238 0 0 1-1-6.5 23.554 23.554 0 0 1 1.8-8.9 22.837 22.837 0 0 1 15.8-13 19.587 19.587 0 0 1 4.8-.5 22.418 22.418 0 0 1 22.2 19.1 18.413 18.413 0 0 1 .3 3.3z"/><path id="Path_42-5" data-name="Path 42" class="cls-4" d="M63.4 73.7H20.3a22.514 22.514 0 0 1 43.1 0z"/><path id="Path_43-5" data-name="Path 43" class="cls-4" d="M125.4 73H88.1a22.177 22.177 0 0 1-3.7.3H83c0-.1.1-.2.1-.3a21.78 21.78 0 0 1 6.8-9.8 22.58 22.58 0 0 1 14.3-5.2h1.5a22.8 22.8 0 0 1 19.7 15z"/><g id="Group_34-5" data-name="Group 34"><path id="Path_44-5" data-name="Path 44" class="cls-4" d="M62 53.2a17.7 17.7 0 0 1-.1-2.3 22.5 22.5 0 0 1 45 0 22.3 22.3 0 0 1-3.4 11.9"/><path id="Path_45-5" data-name="Path 45" class="cls-3" d="M105.1 63.8l-3.4-2.1a20.491 20.491 0 1 0-37.9-10.8 14.769 14.769 0 0 0 .1 2.1l-4 .4a20.083 20.083 0 0 1-.1-2.5 24.5 24.5 0 0 1 49 0 23.853 23.853 0 0 1-3.7 12.9z"/></g><g id="Group_35-5" data-name="Group 35"><path id="Path_47-5" data-name="Path 47" class="cls-3" d="M48.9 58.4l-3.7-1.6a24.489 24.489 0 0 1 16.9-14.1l.9 3.9a20.679 20.679 0 0 0-14.1 11.8z"/></g><g id="Group_36-5" data-name="Group 36"><path id="Path_49-5" data-name="Path 49" class="cls-3" d="M22.1 73.9l-3.9-1.1A24.63 24.63 0 0 1 41.8 55a24.054 24.054 0 0 1 13.7 4.2l-2.2 3.3A20.168 20.168 0 0 0 41.9 59a20.58 20.58 0 0 0-19.8 14.9z"/></g><g id="Group_37-5" data-name="Group 37"><path id="Path_51-5" data-name="Path 51" class="cls-3" d="M123.5 73.7a20.424 20.424 0 0 0-18-13.6l.3-4a24.38 24.38 0 0 1 21.5 16.3z"/></g></g><g id="Group_39-5" data-name="Group 39"><path id="Line_7-5" data-name="Line 7" class="cls-2" transform="translate(0 73)" d="M0 0h348.4"/><path id="Rectangle_26-5" data-name="Rectangle 26" class="cls-3" transform="translate(0 71)" d="M0 0h348.4v4H0z"/></g></g><g id="Group_227" data-name="Group 227" transform="translate(8185.8 451.9)"><g id="Group_5-6" data-name="Group 5"><g id="Group_3-6" data-name="Group 3"><path id="Line_3-6" data-name="Line 3" class="cls-2" transform="translate(115.8 41.4)" d="M0 32.4V0"/><path id="Rectangle_12-6" data-name="Rectangle 12" class="cls-3" transform="translate(113.8 41.4)" d="M0 0h4v32.4H0z"/></g><g id="Group_4-6" data-name="Group 4"><path id="Path_1-6" data-name="Path 1" class="cls-4" d="M91.2 26.6a24.6 24.6 0 1 1 24.6 24.6 24.582 24.582 0 0 1-24.6-24.6z"/><path id="Path_2-6" data-name="Path 2" class="cls-3" d="M115.8 53.2a26.6 26.6 0 1 1 26.6-26.6 26.588 26.588 0 0 1-26.6 26.6zm0-49.2a22.6 22.6 0 1 0 22.6 22.6A22.641 22.641 0 0 0 115.8 4z"/></g></g><g id="Group_10-6" data-name="Group 10"><path id="Path_4-5" data-name="Path 4" class="cls-4" d="M90.1 69.6a21.808 21.808 0 0 1-.9 6.3c0 .1 0 .2-.1.2H88a22.177 22.177 0 0 1-3.7.3h-1.4a18.1 18.1 0 0 1-2.3-.3H46.2a23.238 23.238 0 0 1-1-6.5 23.554 23.554 0 0 1 1.8-8.9 22.837 22.837 0 0 1 15.8-13 19.587 19.587 0 0 1 4.8-.5 22.418 22.418 0 0 1 22.2 19.1 18.413 18.413 0 0 1 .3 3.3z"/><path id="Path_5-5" data-name="Path 5" class="cls-4" d="M63.4 76.8H20.3a22.514 22.514 0 0 1 43.1 0z"/><path id="Path_6-5" data-name="Path 6" class="cls-4" d="M125.4 76.1H88.1a22.177 22.177 0 0 1-3.7.3H83c0-.1.1-.2.1-.3a21.78 21.78 0 0 1 6.8-9.8 22.58 22.58 0 0 1 14.3-5.2h1.5a22.8 22.8 0 0 1 19.7 15z"/><g id="Group_6-5" data-name="Group 6"><path id="Path_7-5" data-name="Path 7" class="cls-4" d="M62 56.2a17.7 17.7 0 0 1-.1-2.3 22.5 22.5 0 0 1 45 0 22.3 22.3 0 0 1-3.4 11.9"/><path id="Path_8-6" data-name="Path 8" class="cls-3" d="M105.1 66.9l-3.4-2.1A20.491 20.491 0 1 0 63.8 54a14.769 14.769 0 0 0 .1 2.1l-4 .4a20.083 20.083 0 0 1-.1-2.5 24.5 24.5 0 0 1 49 0 23.853 23.853 0 0 1-3.7 12.9z"/></g><g id="Group_7-6" data-name="Group 7"><path id="Path_10-6" data-name="Path 10" class="cls-3" d="M48.9 61.5l-3.7-1.6a24.489 24.489 0 0 1 16.9-14.1l.9 3.9a20.435 20.435 0 0 0-14.1 11.8z"/></g><g id="Group_8-6" data-name="Group 8"><path id="Path_12-6" data-name="Path 12" class="cls-3" d="M22.1 77l-3.9-1.1a24.451 24.451 0 0 1 23.6-17.8 24.054 24.054 0 0 1 13.7 4.2l-2.2 3.3a20.168 20.168 0 0 0-11.4-3.5A20.58 20.58 0 0 0 22.1 77z"/></g><g id="Group_9-6" data-name="Group 9"><path id="Path_14-6" data-name="Path 14" class="cls-3" d="M123.5 76.8a20.424 20.424 0 0 0-18-13.6l.3-4a24.38 24.38 0 0 1 21.5 16.3z"/></g></g><g id="Group_11-6" data-name="Group 11"><path id="Line_4-6" data-name="Line 4" class="cls-2" transform="translate(0 76.1)" d="M0 0h152.2"/><path id="Rectangle_13-6" data-name="Rectangle 13" class="cls-3" transform="translate(0 74.1)" d="M0 0h152.2v4H0z"/></g></g><g id="Group_228" data-name="Group 228" transform="translate(9940.8 451.9)"><g id="Group_5-7" data-name="Group 5"><g id="Group_3-7" data-name="Group 3"><path id="Line_3-7" data-name="Line 3" class="cls-2" transform="translate(115.8 41.4)" d="M0 32.4V0"/><path id="Rectangle_12-7" data-name="Rectangle 12" class="cls-3" transform="translate(113.8 41.4)" d="M0 0h4v32.4H0z"/></g><g id="Group_4-7" data-name="Group 4"><path id="Path_1-7" data-name="Path 1" class="cls-4" d="M91.2 26.6a24.6 24.6 0 1 1 24.6 24.6 24.582 24.582 0 0 1-24.6-24.6z"/><path id="Path_2-7" data-name="Path 2" class="cls-3" d="M115.8 53.2a26.6 26.6 0 1 1 26.6-26.6 26.588 26.588 0 0 1-26.6 26.6zm0-49.2a22.6 22.6 0 1 0 22.6 22.6A22.641 22.641 0 0 0 115.8 4z"/></g></g><g id="Group_10-7" data-name="Group 10"><path id="Path_4-6" data-name="Path 4" class="cls-4" d="M90.1 69.6a21.808 21.808 0 0 1-.9 6.3c0 .1 0 .2-.1.2H88a22.177 22.177 0 0 1-3.7.3h-1.4a18.1 18.1 0 0 1-2.3-.3H46.2a23.238 23.238 0 0 1-1-6.5 23.554 23.554 0 0 1 1.8-8.9 22.837 22.837 0 0 1 15.8-13 19.587 19.587 0 0 1 4.8-.5 22.418 22.418 0 0 1 22.2 19.1 18.413 18.413 0 0 1 .3 3.3z"/><path id="Path_5-6" data-name="Path 5" class="cls-4" d="M63.4 76.8H20.3a22.514 22.514 0 0 1 43.1 0z"/><path id="Path_6-6" data-name="Path 6" class="cls-4" d="M125.4 76.1H88.1a22.177 22.177 0 0 1-3.7.3H83c0-.1.1-.2.1-.3a21.78 21.78 0 0 1 6.8-9.8 22.58 22.58 0 0 1 14.3-5.2h1.5a22.8 22.8 0 0 1 19.7 15z"/><g id="Group_6-6" data-name="Group 6"><path id="Path_7-6" data-name="Path 7" class="cls-4" d="M62 56.2a17.7 17.7 0 0 1-.1-2.3 22.5 22.5 0 0 1 45 0 22.3 22.3 0 0 1-3.4 11.9"/><path id="Path_8-7" data-name="Path 8" class="cls-3" d="M105.1 66.9l-3.4-2.1A20.491 20.491 0 1 0 63.8 54a14.769 14.769 0 0 0 .1 2.1l-4 .4a20.083 20.083 0 0 1-.1-2.5 24.5 24.5 0 0 1 49 0 23.853 23.853 0 0 1-3.7 12.9z"/></g><g id="Group_7-7" data-name="Group 7"><path id="Path_10-7" data-name="Path 10" class="cls-3" d="M48.9 61.5l-3.7-1.6a24.489 24.489 0 0 1 16.9-14.1l.9 3.9a20.435 20.435 0 0 0-14.1 11.8z"/></g><g id="Group_8-7" data-name="Group 8"><path id="Path_12-7" data-name="Path 12" class="cls-3" d="M22.1 77l-3.9-1.1a24.451 24.451 0 0 1 23.6-17.8 24.054 24.054 0 0 1 13.7 4.2l-2.2 3.3a20.168 20.168 0 0 0-11.4-3.5A20.58 20.58 0 0 0 22.1 77z"/></g><g id="Group_9-7" data-name="Group 9"><path id="Path_14-7" data-name="Path 14" class="cls-3" d="M123.5 76.8a20.424 20.424 0 0 0-18-13.6l.3-4a24.38 24.38 0 0 1 21.5 16.3z"/></g></g><g id="Group_11-7" data-name="Group 11"><path id="Line_4-7" data-name="Line 4" class="cls-2" transform="translate(0 76.1)" d="M0 0h152.2"/><path id="Rectangle_13-7" data-name="Rectangle 13" class="cls-3" transform="translate(0 74.1)" d="M0 0h152.2v4H0z"/></g></g><g id="Group_244" data-name="Group 244" transform="translate(8569.8 455)"><g id="Group_33-6" data-name="Group 33"><g id="Group_31-6" data-name="Group 31"><path id="Line_6-6" data-name="Line 6" class="cls-2" transform="translate(177 41.4)" d="M0 32.4V0"/><path id="Rectangle_25-6" data-name="Rectangle 25" class="cls-3" transform="translate(175 41.4)" d="M0 0h4v32.4H0z"/></g><g id="Group_32-6" data-name="Group 32"><path id="Path_38-6" data-name="Path 38" class="cls-4" d="M152.4 26.6A24.6 24.6 0 1 1 177 51.2a24.582 24.582 0 0 1-24.6-24.6z"/><path id="Path_39-6" data-name="Path 39" class="cls-3" d="M177 53.2a26.6 26.6 0 1 1 26.6-26.6A26.588 26.588 0 0 1 177 53.2zM177 4a22.6 22.6 0 1 0 22.6 22.6A22.641 22.641 0 0 0 177 4z"/></g></g><g id="Group_38-6" data-name="Group 38"><path id="Path_41-6" data-name="Path 41" class="cls-4" d="M90.1 66.5a21.808 21.808 0 0 1-.9 6.3c0 .1 0 .2-.1.2H88a22.177 22.177 0 0 1-3.7.3h-1.4a18.1 18.1 0 0 1-2.3-.3H46.2a23.238 23.238 0 0 1-1-6.5 23.554 23.554 0 0 1 1.8-8.9 22.837 22.837 0 0 1 15.8-13 19.587 19.587 0 0 1 4.8-.5 22.418 22.418 0 0 1 22.2 19.1 18.413 18.413 0 0 1 .3 3.3z"/><path id="Path_42-6" data-name="Path 42" class="cls-4" d="M63.4 73.7H20.3a22.514 22.514 0 0 1 43.1 0z"/><path id="Path_43-6" data-name="Path 43" class="cls-4" d="M125.4 73H88.1a22.177 22.177 0 0 1-3.7.3H83c0-.1.1-.2.1-.3a21.78 21.78 0 0 1 6.8-9.8 22.58 22.58 0 0 1 14.3-5.2h1.5a22.8 22.8 0 0 1 19.7 15z"/><g id="Group_34-6" data-name="Group 34"><path id="Path_44-6" data-name="Path 44" class="cls-4" d="M62 53.2a17.7 17.7 0 0 1-.1-2.3 22.5 22.5 0 0 1 45 0 22.3 22.3 0 0 1-3.4 11.9"/><path id="Path_45-6" data-name="Path 45" class="cls-3" d="M105.1 63.8l-3.4-2.1a20.491 20.491 0 1 0-37.9-10.8 14.769 14.769 0 0 0 .1 2.1l-4 .4a20.083 20.083 0 0 1-.1-2.5 24.5 24.5 0 0 1 49 0 23.853 23.853 0 0 1-3.7 12.9z"/></g><g id="Group_35-6" data-name="Group 35"><path id="Path_47-6" data-name="Path 47" class="cls-3" d="M48.9 58.4l-3.7-1.6a24.489 24.489 0 0 1 16.9-14.1l.9 3.9a20.679 20.679 0 0 0-14.1 11.8z"/></g><g id="Group_36-6" data-name="Group 36"><path id="Path_49-6" data-name="Path 49" class="cls-3" d="M22.1 73.9l-3.9-1.1A24.63 24.63 0 0 1 41.8 55a24.054 24.054 0 0 1 13.7 4.2l-2.2 3.3A20.168 20.168 0 0 0 41.9 59a20.58 20.58 0 0 0-19.8 14.9z"/></g><g id="Group_37-6" data-name="Group 37"><path id="Path_51-6" data-name="Path 51" class="cls-3" d="M123.5 73.7a20.424 20.424 0 0 0-18-13.6l.3-4a24.38 24.38 0 0 1 21.5 16.3z"/></g></g><g id="Group_39-6" data-name="Group 39"><path id="Line_7-6" data-name="Line 7" class="cls-2" transform="translate(0 73)" d="M0 0h348.4"/><path id="Rectangle_26-6" data-name="Rectangle 26" class="cls-3" transform="translate(0 71)" d="M0 0h348.4v4H0z"/></g></g><g id="Group_229" data-name="Group 229" transform="translate(11375.8 451.9)"><g id="Group_5-8" data-name="Group 5"><g id="Group_3-8" data-name="Group 3"><path id="Line_3-8" data-name="Line 3" class="cls-2" transform="translate(115.8 41.4)" d="M0 32.4V0"/><path id="Rectangle_12-8" data-name="Rectangle 12" class="cls-3" transform="translate(113.8 41.4)" d="M0 0h4v32.4H0z"/></g><g id="Group_4-8" data-name="Group 4"><path id="Path_1-8" data-name="Path 1" class="cls-4" d="M91.2 26.6a24.6 24.6 0 1 1 24.6 24.6 24.582 24.582 0 0 1-24.6-24.6z"/><path id="Path_2-8" data-name="Path 2" class="cls-3" d="M115.8 53.2a26.6 26.6 0 1 1 26.6-26.6 26.588 26.588 0 0 1-26.6 26.6zm0-49.2a22.6 22.6 0 1 0 22.6 22.6A22.641 22.641 0 0 0 115.8 4z"/></g></g><g id="Group_10-8" data-name="Group 10"><path id="Path_4-7" data-name="Path 4" class="cls-4" d="M90.1 69.6a21.808 21.808 0 0 1-.9 6.3c0 .1 0 .2-.1.2H88a22.177 22.177 0 0 1-3.7.3h-1.4a18.1 18.1 0 0 1-2.3-.3H46.2a23.238 23.238 0 0 1-1-6.5 23.554 23.554 0 0 1 1.8-8.9 22.837 22.837 0 0 1 15.8-13 19.587 19.587 0 0 1 4.8-.5 22.418 22.418 0 0 1 22.2 19.1 18.413 18.413 0 0 1 .3 3.3z"/><path id="Path_5-7" data-name="Path 5" class="cls-4" d="M63.4 76.8H20.3a22.514 22.514 0 0 1 43.1 0z"/><path id="Path_6-7" data-name="Path 6" class="cls-4" d="M125.4 76.1H88.1a22.177 22.177 0 0 1-3.7.3H83c0-.1.1-.2.1-.3a21.78 21.78 0 0 1 6.8-9.8 22.58 22.58 0 0 1 14.3-5.2h1.5a22.8 22.8 0 0 1 19.7 15z"/><g id="Group_6-7" data-name="Group 6"><path id="Path_7-7" data-name="Path 7" class="cls-4" d="M62 56.2a17.7 17.7 0 0 1-.1-2.3 22.5 22.5 0 0 1 45 0 22.3 22.3 0 0 1-3.4 11.9"/><path id="Path_8-8" data-name="Path 8" class="cls-3" d="M105.1 66.9l-3.4-2.1A20.491 20.491 0 1 0 63.8 54a14.769 14.769 0 0 0 .1 2.1l-4 .4a20.083 20.083 0 0 1-.1-2.5 24.5 24.5 0 0 1 49 0 23.853 23.853 0 0 1-3.7 12.9z"/></g><g id="Group_7-8" data-name="Group 7"><path id="Path_10-8" data-name="Path 10" class="cls-3" d="M48.9 61.5l-3.7-1.6a24.489 24.489 0 0 1 16.9-14.1l.9 3.9a20.435 20.435 0 0 0-14.1 11.8z"/></g><g id="Group_8-8" data-name="Group 8"><path id="Path_12-8" data-name="Path 12" class="cls-3" d="M22.1 77l-3.9-1.1a24.451 24.451 0 0 1 23.6-17.8 24.054 24.054 0 0 1 13.7 4.2l-2.2 3.3a20.168 20.168 0 0 0-11.4-3.5A20.58 20.58 0 0 0 22.1 77z"/></g><g id="Group_9-8" data-name="Group 9"><path id="Path_14-8" data-name="Path 14" class="cls-3" d="M123.5 76.8a20.424 20.424 0 0 0-18-13.6l.3-4a24.38 24.38 0 0 1 21.5 16.3z"/></g></g><g id="Group_11-8" data-name="Group 11"><path id="Line_4-8" data-name="Line 4" class="cls-2" transform="translate(0 76.1)" d="M0 0h152.2"/><path id="Rectangle_13-8" data-name="Rectangle 13" class="cls-3" transform="translate(0 74.1)" d="M0 0h152.2v4H0z"/></g></g><g id="Group_245" data-name="Group 245" transform="translate(10803.8 455)"><g id="Group_33-7" data-name="Group 33"><g id="Group_31-7" data-name="Group 31"><path id="Line_6-7" data-name="Line 6" class="cls-2" transform="translate(177 41.4)" d="M0 32.4V0"/><path id="Rectangle_25-7" data-name="Rectangle 25" class="cls-3" transform="translate(175 41.4)" d="M0 0h4v32.4H0z"/></g><g id="Group_32-7" data-name="Group 32"><path id="Path_38-7" data-name="Path 38" class="cls-4" d="M152.4 26.6A24.6 24.6 0 1 1 177 51.2a24.582 24.582 0 0 1-24.6-24.6z"/><path id="Path_39-7" data-name="Path 39" class="cls-3" d="M177 53.2a26.6 26.6 0 1 1 26.6-26.6A26.588 26.588 0 0 1 177 53.2zM177 4a22.6 22.6 0 1 0 22.6 22.6A22.641 22.641 0 0 0 177 4z"/></g></g><g id="Group_38-7" data-name="Group 38"><path id="Path_41-7" data-name="Path 41" class="cls-4" d="M90.1 66.5a21.808 21.808 0 0 1-.9 6.3c0 .1 0 .2-.1.2H88a22.177 22.177 0 0 1-3.7.3h-1.4a18.1 18.1 0 0 1-2.3-.3H46.2a23.238 23.238 0 0 1-1-6.5 23.554 23.554 0 0 1 1.8-8.9 22.837 22.837 0 0 1 15.8-13 19.587 19.587 0 0 1 4.8-.5 22.418 22.418 0 0 1 22.2 19.1 18.413 18.413 0 0 1 .3 3.3z"/><path id="Path_42-7" data-name="Path 42" class="cls-4" d="M63.4 73.7H20.3a22.514 22.514 0 0 1 43.1 0z"/><path id="Path_43-7" data-name="Path 43" class="cls-4" d="M125.4 73H88.1a22.177 22.177 0 0 1-3.7.3H83c0-.1.1-.2.1-.3a21.78 21.78 0 0 1 6.8-9.8 22.58 22.58 0 0 1 14.3-5.2h1.5a22.8 22.8 0 0 1 19.7 15z"/><g id="Group_34-7" data-name="Group 34"><path id="Path_44-7" data-name="Path 44" class="cls-4" d="M62 53.2a17.7 17.7 0 0 1-.1-2.3 22.5 22.5 0 0 1 45 0 22.3 22.3 0 0 1-3.4 11.9"/><path id="Path_45-7" data-name="Path 45" class="cls-3" d="M105.1 63.8l-3.4-2.1a20.491 20.491 0 1 0-37.9-10.8 14.769 14.769 0 0 0 .1 2.1l-4 .4a20.083 20.083 0 0 1-.1-2.5 24.5 24.5 0 0 1 49 0 23.853 23.853 0 0 1-3.7 12.9z"/></g><g id="Group_35-7" data-name="Group 35"><path id="Path_47-7" data-name="Path 47" class="cls-3" d="M48.9 58.4l-3.7-1.6a24.489 24.489 0 0 1 16.9-14.1l.9 3.9a20.679 20.679 0 0 0-14.1 11.8z"/></g><g id="Group_36-7" data-name="Group 36"><path id="Path_49-7" data-name="Path 49" class="cls-3" d="M22.1 73.9l-3.9-1.1A24.63 24.63 0 0 1 41.8 55a24.054 24.054 0 0 1 13.7 4.2l-2.2 3.3A20.168 20.168 0 0 0 41.9 59a20.58 20.58 0 0 0-19.8 14.9z"/></g><g id="Group_37-7" data-name="Group 37"><path id="Path_51-7" data-name="Path 51" class="cls-3" d="M123.5 73.7a20.424 20.424 0 0 0-18-13.6l.3-4a24.38 24.38 0 0 1 21.5 16.3z"/></g></g><g id="Group_39-7" data-name="Group 39"><path id="Line_7-7" data-name="Line 7" class="cls-2" transform="translate(0 73)" d="M0 0h348.4"/><path id="Rectangle_26-7" data-name="Rectangle 26" class="cls-3" transform="translate(0 71)" d="M0 0h348.4v4H0z"/></g></g><g id="Group_251" data-name="Group 251" transform="translate(917.6 455)"><g id="Group_33-8" data-name="Group 33"><g id="Group_31-8" data-name="Group 31"><path id="Line_6-8" data-name="Line 6" class="cls-2" transform="translate(177 41.4)" d="M0 32.4V0"/><path id="Rectangle_25-8" data-name="Rectangle 25" class="cls-3" transform="translate(175 41.4)" d="M0 0h4v32.4H0z"/></g><g id="Group_32-8" data-name="Group 32"><path id="Path_38-8" data-name="Path 38" class="cls-4" d="M152.4 26.6A24.6 24.6 0 1 1 177 51.2a24.582 24.582 0 0 1-24.6-24.6z"/><path id="Path_39-8" data-name="Path 39" class="cls-3" d="M177 53.2a26.6 26.6 0 1 1 26.6-26.6A26.588 26.588 0 0 1 177 53.2zM177 4a22.6 22.6 0 1 0 22.6 22.6A22.641 22.641 0 0 0 177 4z"/></g></g><g id="Group_38-8" data-name="Group 38"><path id="Path_41-8" data-name="Path 41" class="cls-4" d="M90.1 66.5a21.808 21.808 0 0 1-.9 6.3c0 .1 0 .2-.1.2H88a22.177 22.177 0 0 1-3.7.3h-1.4a18.1 18.1 0 0 1-2.3-.3H46.2a23.238 23.238 0 0 1-1-6.5 23.554 23.554 0 0 1 1.8-8.9 22.837 22.837 0 0 1 15.8-13 19.587 19.587 0 0 1 4.8-.5 22.418 22.418 0 0 1 22.2 19.1 18.413 18.413 0 0 1 .3 3.3z"/><path id="Path_42-8" data-name="Path 42" class="cls-4" d="M63.4 73.7H20.3a22.514 22.514 0 0 1 43.1 0z"/><path id="Path_43-8" data-name="Path 43" class="cls-4" d="M125.4 73H88.1a22.177 22.177 0 0 1-3.7.3H83c0-.1.1-.2.1-.3a21.78 21.78 0 0 1 6.8-9.8 22.58 22.58 0 0 1 14.3-5.2h1.5a22.8 22.8 0 0 1 19.7 15z"/><g id="Group_34-8" data-name="Group 34"><path id="Path_44-8" data-name="Path 44" class="cls-4" d="M62 53.2a17.7 17.7 0 0 1-.1-2.3 22.5 22.5 0 0 1 45 0 22.3 22.3 0 0 1-3.4 11.9"/><path id="Path_45-8" data-name="Path 45" class="cls-3" d="M105.1 63.8l-3.4-2.1a20.491 20.491 0 1 0-37.9-10.8 14.769 14.769 0 0 0 .1 2.1l-4 .4a20.083 20.083 0 0 1-.1-2.5 24.5 24.5 0 0 1 49 0 23.853 23.853 0 0 1-3.7 12.9z"/></g><g id="Group_35-8" data-name="Group 35"><path id="Path_47-8" data-name="Path 47" class="cls-3" d="M48.9 58.4l-3.7-1.6a24.489 24.489 0 0 1 16.9-14.1l.9 3.9a20.679 20.679 0 0 0-14.1 11.8z"/></g><g id="Group_36-8" data-name="Group 36"><path id="Path_49-8" data-name="Path 49" class="cls-3" d="M22.1 73.9l-3.9-1.1A24.63 24.63 0 0 1 41.8 55a24.054 24.054 0 0 1 13.7 4.2l-2.2 3.3A20.168 20.168 0 0 0 41.9 59a20.58 20.58 0 0 0-19.8 14.9z"/></g><g id="Group_37-8" data-name="Group 37"><path id="Path_51-8" data-name="Path 51" class="cls-3" d="M123.5 73.7a20.424 20.424 0 0 0-18-13.6l.3-4a24.38 24.38 0 0 1 21.5 16.3z"/></g></g><g id="Group_39-8" data-name="Group 39"><path id="Line_7-8" data-name="Line 7" class="cls-2" transform="translate(0 73)" d="M0 0h348.4"/><path id="Rectangle_26-8" data-name="Rectangle 26" class="cls-3" transform="translate(0 71)" d="M0 0h348.4v4H0z"/></g></g></g></g></svg>