<svg xmlns="http://www.w3.org/2000/svg" viewBox="0 0 618 354"><defs><style>.cls-2{opacity:.25;fill:#595959;stroke:#202020;stroke-miterlimit:10;stroke-width:2px}</style></defs><g id="Group_66" data-name="Group 66" transform="translate(-832)" opacity=".25"><path id="Path_111" data-name="Path 111" class="cls-2" d="M321 161h-8l-16 16v176h40V129h-16z" transform="translate(642)"/><path id="Path_112" data-name="Path 112" class="cls-2" d="M681 9V1h-8v352h32V17h-16z" transform="translate(400)"/><path id="Path_113" data-name="Path 113" class="cls-2" d="M577 113l-16-16V25h-16v8h-8v16l-8 8v296h64V89h-16z" transform="translate(478)"/><path id="Path_114" data-name="Path 114" class="cls-2" d="M481 177h-8v-32h-8v208h24V161h-8z" transform="translate(516)"/><path id="Path_115" data-name="Path 115" class="cls-2" d="M209 177h-8v32h-8v48h-16v-24h-32v16h-16v-8h-16v112h104V209h-8z" transform="translate(720)"/><path id="Path_116" data-name="Path 116" class="cls-2" d="M873 105h-8v8h-8v24h-24v-24l-16-16v256h64V129h-8z" transform="translate(290)"/><path id="Path_117" data-name="Path 117" class="cls-2" d="M1033 201h-16v-48l-8-8-8 8v16h-16v-40h-8V73h-16v24h-16v256h96V177h-8z" transform="translate(228)"/><path id="Path_118" data-name="Path 118" class="cls-2" d="M1209 177h-8v-16l-8-8-8 8v32h-16v-16h-16v176h72V185h-16z" transform="translate(118)"/><path id="Path_119" data-name="Path 119" class="cls-2" d="M1425 305v16h-24v-24l-8-8v-16h-8v-32h-8v32h-8v8h-8v-24h-16v96h104v-48z"/></g></svg>