<svg xmlns="http://www.w3.org/2000/svg" viewBox="0 0 1528.2 506">
  <defs>
    <style>
      .cls-1 {
        fill: #242424;
      }

      .cls-2, .cls-8 {
        fill: #fff;
      }

      .cls-3 {
        fill: #ee4035;
      }

      .cls-4, .cls-5 {
        opacity: 0.25;
      }

      .cls-5 {
        fill: #202020;
        stroke: #202020;
        stroke-miterlimit: 10;
        stroke-width: 2px;
      }

      .cls-6 {
        fill: #595959;
      }

      .cls-7 {
        fill: #ee7601;
      }

      .cls-8 {
        opacity: 0.5;
      }

      .cls-9 {
        fill: #f1f1f1;
      }

      .cls-10 {
        fill: #f1f1f2;
      }
    </style>
  </defs>
  <g id="Group_626" data-name="Group 626" transform="translate(52.2 -226)">
    <path id="Path_129" data-name="Path 129" class="cls-1" d="M87,32H0l.6-2.3A20.98,20.98,0,0,1,20.9,14.1a10.869,10.869,0,0,1,1.8.1A18.481,18.481,0,0,1,55.9,8a7.569,7.569,0,0,1,1.5-.1,10.537,10.537,0,0,1,10.4,8.6A26.034,26.034,0,0,1,85.5,29.3ZM4.9,28.4H80.5a22.49,22.49,0,0,0-14.6-8.5l-1.5-.2-.1-1.5a7.031,7.031,0,0,0-7-6.7,5.663,5.663,0,0,0-1.8.3l-1.4.4L53.4,11A14.9,14.9,0,0,0,40.6,3.7,14.666,14.666,0,0,0,26,16.4l-.3,1.9L23.9,18a15.262,15.262,0,0,0-3-.3A17.463,17.463,0,0,0,4.9,28.4Z" transform="translate(1241 226)"/>
    <path id="Path_262" data-name="Path 262" class="cls-1" d="M87,32H0l.6-2.3A20.98,20.98,0,0,1,20.9,14.1a10.869,10.869,0,0,1,1.8.1A18.481,18.481,0,0,1,55.9,8a7.569,7.569,0,0,1,1.5-.1,10.537,10.537,0,0,1,10.4,8.6A26.034,26.034,0,0,1,85.5,29.3ZM4.9,28.4H80.5a22.49,22.49,0,0,0-14.6-8.5l-1.5-.2-.1-1.5a7.031,7.031,0,0,0-7-6.7,5.663,5.663,0,0,0-1.8.3l-1.4.4L53.4,11A14.9,14.9,0,0,0,40.6,3.7,14.666,14.666,0,0,0,26,16.4l-.3,1.9L23.9,18a15.262,15.262,0,0,0-3-.3A17.463,17.463,0,0,0,4.9,28.4Z" transform="translate(278 248)"/>
    <path id="Path_130" data-name="Path 130" class="cls-1" d="M61.3,20.3H.4L.1,18.8c0-.6-.1-1.2-.1-1.8A9.709,9.709,0,0,1,9.7,7.3a10.974,10.974,0,0,1,4,.8A13.643,13.643,0,0,1,35.4,3.6,8.6,8.6,0,0,1,41.7,1a9.133,9.133,0,0,1,9.1,9.1v.7a19.329,19.329,0,0,1,8.5,6.7ZM3.6,16.7h50a19.105,19.105,0,0,0-5.4-3l-1.7-.5.5-1.7a5.9,5.9,0,0,0,.2-1.4,5.549,5.549,0,0,0-5.5-5.5A5.454,5.454,0,0,0,37,7.3L35.6,9.6,34,7.5a9.958,9.958,0,0,0-17.5,3.8l-.7,2.8-2.2-1.8a5.943,5.943,0,0,0-3.8-1.4A6.229,6.229,0,0,0,3.6,16.7Z" transform="translate(78.35 329.7)"/>
    <path id="Path_1160" data-name="Path 1160" class="cls-1" d="M61.3,20.3H.4L.1,18.8c0-.6-.1-1.2-.1-1.8A9.709,9.709,0,0,1,9.7,7.3a10.974,10.974,0,0,1,4,.8A13.643,13.643,0,0,1,35.4,3.6,8.6,8.6,0,0,1,41.7,1a9.133,9.133,0,0,1,9.1,9.1v.7a19.329,19.329,0,0,1,8.5,6.7ZM3.6,16.7h50a19.105,19.105,0,0,0-5.4-3l-1.7-.5.5-1.7a5.9,5.9,0,0,0,.2-1.4,5.549,5.549,0,0,0-5.5-5.5A5.454,5.454,0,0,0,37,7.3L35.6,9.6,34,7.5a9.958,9.958,0,0,0-17.5,3.8l-.7,2.8-2.2-1.8a5.943,5.943,0,0,0-3.8-1.4A6.229,6.229,0,0,0,3.6,16.7Z" transform="translate(1297.35 329.7)"/>
    <g id="Group_625" data-name="Group 625">
      <g id="Group_12" data-name="Group 12" transform="translate(1206.8 653.9)">
        <g id="Group_10" data-name="Group 10">
          <path id="Path_4" data-name="Path 4" class="cls-2" d="M90.1,69.6a21.808,21.808,0,0,1-.9,6.3c0,.1,0,.2-.1.2H88a22.177,22.177,0,0,1-3.7.3H82.9a18.1,18.1,0,0,1-2.3-.3H46.2a23.238,23.238,0,0,1-1-6.5A23.554,23.554,0,0,1,47,60.7a22.837,22.837,0,0,1,15.8-13,19.587,19.587,0,0,1,4.8-.5A22.418,22.418,0,0,1,89.8,66.3,18.413,18.413,0,0,1,90.1,69.6Z"/>
          <path id="Path_5" data-name="Path 5" class="cls-2" d="M63.4,76.8H20.3a22.514,22.514,0,0,1,43.1,0Z"/>
          <path id="Path_6" data-name="Path 6" class="cls-2" d="M125.4,76.1H88.1a22.177,22.177,0,0,1-3.7.3H83c0-.1.1-.2.1-.3a21.78,21.78,0,0,1,6.8-9.8,22.58,22.58,0,0,1,14.3-5.2h1.5A22.8,22.8,0,0,1,125.4,76.1Z"/>
          <g id="Group_6" data-name="Group 6">
            <path id="Path_7" data-name="Path 7" class="cls-2" d="M62,56.2a17.7,17.7,0,0,1-.1-2.3,22.5,22.5,0,0,1,45,0,22.3,22.3,0,0,1-3.4,11.9"/>
            <path id="Path_8" data-name="Path 8" class="cls-1" d="M105.1,66.9l-3.4-2.1A20.491,20.491,0,1,0,63.8,54a14.769,14.769,0,0,0,.1,2.1l-4,.4a20.083,20.083,0,0,1-.1-2.5,24.5,24.5,0,0,1,49,0A23.853,23.853,0,0,1,105.1,66.9Z"/>
          </g>
          <g id="Group_7" data-name="Group 7">
            <path id="Path_10" data-name="Path 10" class="cls-1" d="M48.9,61.5l-3.7-1.6A24.489,24.489,0,0,1,62.1,45.8l.9,3.9A20.435,20.435,0,0,0,48.9,61.5Z"/>
          </g>
          <g id="Group_8" data-name="Group 8">
            <path id="Path_12" data-name="Path 12" class="cls-1" d="M22.1,77l-3.9-1.1A24.451,24.451,0,0,1,41.8,58.1a24.054,24.054,0,0,1,13.7,4.2l-2.2,3.3a20.168,20.168,0,0,0-11.4-3.5A20.58,20.58,0,0,0,22.1,77Z"/>
          </g>
          <g id="Group_9" data-name="Group 9">
            <path id="Path_14" data-name="Path 14" class="cls-1" d="M123.5,76.8a20.424,20.424,0,0,0-18-13.6l.3-4a24.38,24.38,0,0,1,21.5,16.3Z"/>
          </g>
        </g>
        <g id="Group_11" data-name="Group 11">
          <line id="Line_4" data-name="Line 4" class="cls-3" x2="152.2" transform="translate(0 76.1)"/>
          <rect id="Rectangle_13" data-name="Rectangle 13" class="cls-1" width="152.2" height="4" transform="translate(0 74.1)"/>
        </g>
      </g>
      <g id="Group_621" data-name="Group 621" transform="translate(1323.8 653.9)">
        <g id="Group_10-2" data-name="Group 10">
          <path id="Path_4-2" data-name="Path 4" class="cls-2" d="M90.1,69.6a21.808,21.808,0,0,1-.9,6.3c0,.1,0,.2-.1.2H88a22.177,22.177,0,0,1-3.7.3H82.9a18.1,18.1,0,0,1-2.3-.3H46.2a23.238,23.238,0,0,1-1-6.5A23.554,23.554,0,0,1,47,60.7a22.837,22.837,0,0,1,15.8-13,19.587,19.587,0,0,1,4.8-.5A22.418,22.418,0,0,1,89.8,66.3,18.413,18.413,0,0,1,90.1,69.6Z"/>
          <path id="Path_5-2" data-name="Path 5" class="cls-2" d="M63.4,76.8H20.3a22.514,22.514,0,0,1,43.1,0Z"/>
          <path id="Path_6-2" data-name="Path 6" class="cls-2" d="M125.4,76.1H88.1a22.177,22.177,0,0,1-3.7.3H83c0-.1.1-.2.1-.3a21.78,21.78,0,0,1,6.8-9.8,22.58,22.58,0,0,1,14.3-5.2h1.5A22.8,22.8,0,0,1,125.4,76.1Z"/>
          <g id="Group_6-2" data-name="Group 6">
            <path id="Path_7-2" data-name="Path 7" class="cls-2" d="M62,56.2a17.7,17.7,0,0,1-.1-2.3,22.5,22.5,0,0,1,45,0,22.3,22.3,0,0,1-3.4,11.9"/>
            <path id="Path_8-2" data-name="Path 8" class="cls-1" d="M105.1,66.9l-3.4-2.1A20.491,20.491,0,1,0,63.8,54a14.769,14.769,0,0,0,.1,2.1l-4,.4a20.083,20.083,0,0,1-.1-2.5,24.5,24.5,0,0,1,49,0A23.853,23.853,0,0,1,105.1,66.9Z"/>
          </g>
          <g id="Group_7-2" data-name="Group 7">
            <path id="Path_10-2" data-name="Path 10" class="cls-1" d="M48.9,61.5l-3.7-1.6A24.489,24.489,0,0,1,62.1,45.8l.9,3.9A20.435,20.435,0,0,0,48.9,61.5Z"/>
          </g>
          <g id="Group_8-2" data-name="Group 8">
            <path id="Path_12-2" data-name="Path 12" class="cls-1" d="M22.1,77l-3.9-1.1A24.451,24.451,0,0,1,41.8,58.1a24.054,24.054,0,0,1,13.7,4.2l-2.2,3.3a20.168,20.168,0,0,0-11.4-3.5A20.58,20.58,0,0,0,22.1,77Z"/>
          </g>
          <g id="Group_9-2" data-name="Group 9">
            <path id="Path_14-2" data-name="Path 14" class="cls-1" d="M123.5,76.8a20.424,20.424,0,0,0-18-13.6l.3-4a24.38,24.38,0,0,1,21.5,16.3Z"/>
          </g>
        </g>
        <g id="Group_11-2" data-name="Group 11">
          <line id="Line_4-2" data-name="Line 4" class="cls-3" x2="152.2" transform="translate(0 76.1)"/>
          <rect id="Rectangle_13-2" data-name="Rectangle 13" class="cls-1" width="152.2" height="4" transform="translate(0 74.1)"/>
        </g>
      </g>
      <g id="Group_620" data-name="Group 620" transform="translate(-52.2 653.9)">
        <g id="Group_10-3" data-name="Group 10">
          <path id="Path_4-3" data-name="Path 4" class="cls-2" d="M90.1,69.6a21.808,21.808,0,0,1-.9,6.3c0,.1,0,.2-.1.2H88a22.177,22.177,0,0,1-3.7.3H82.9a18.1,18.1,0,0,1-2.3-.3H46.2a23.238,23.238,0,0,1-1-6.5A23.554,23.554,0,0,1,47,60.7a22.837,22.837,0,0,1,15.8-13,19.587,19.587,0,0,1,4.8-.5A22.418,22.418,0,0,1,89.8,66.3,18.413,18.413,0,0,1,90.1,69.6Z"/>
          <path id="Path_5-3" data-name="Path 5" class="cls-2" d="M63.4,76.8H20.3a22.514,22.514,0,0,1,43.1,0Z"/>
          <path id="Path_6-3" data-name="Path 6" class="cls-2" d="M125.4,76.1H88.1a22.177,22.177,0,0,1-3.7.3H83c0-.1.1-.2.1-.3a21.78,21.78,0,0,1,6.8-9.8,22.58,22.58,0,0,1,14.3-5.2h1.5A22.8,22.8,0,0,1,125.4,76.1Z"/>
          <g id="Group_6-3" data-name="Group 6">
            <path id="Path_7-3" data-name="Path 7" class="cls-2" d="M62,56.2a17.7,17.7,0,0,1-.1-2.3,22.5,22.5,0,0,1,45,0,22.3,22.3,0,0,1-3.4,11.9"/>
            <path id="Path_8-3" data-name="Path 8" class="cls-1" d="M105.1,66.9l-3.4-2.1A20.491,20.491,0,1,0,63.8,54a14.769,14.769,0,0,0,.1,2.1l-4,.4a20.083,20.083,0,0,1-.1-2.5,24.5,24.5,0,0,1,49,0A23.853,23.853,0,0,1,105.1,66.9Z"/>
          </g>
          <g id="Group_7-3" data-name="Group 7">
            <path id="Path_10-3" data-name="Path 10" class="cls-1" d="M48.9,61.5l-3.7-1.6A24.489,24.489,0,0,1,62.1,45.8l.9,3.9A20.435,20.435,0,0,0,48.9,61.5Z"/>
          </g>
          <g id="Group_8-3" data-name="Group 8">
            <path id="Path_12-3" data-name="Path 12" class="cls-1" d="M22.1,77l-3.9-1.1A24.451,24.451,0,0,1,41.8,58.1a24.054,24.054,0,0,1,13.7,4.2l-2.2,3.3a20.168,20.168,0,0,0-11.4-3.5A20.58,20.58,0,0,0,22.1,77Z"/>
          </g>
          <g id="Group_9-3" data-name="Group 9">
            <path id="Path_14-3" data-name="Path 14" class="cls-1" d="M123.5,76.8a20.424,20.424,0,0,0-18-13.6l.3-4a24.38,24.38,0,0,1,21.5,16.3Z"/>
          </g>
        </g>
        <g id="Group_11-3" data-name="Group 11">
          <line id="Line_4-3" data-name="Line 4" class="cls-3" x2="152.2" transform="translate(0 76.1)"/>
          <rect id="Rectangle_13-3" data-name="Rectangle 13" class="cls-1" width="152.2" height="4" transform="translate(0 74.1)"/>
        </g>
      </g>
      <g id="Group_624" data-name="Group 624">
        <g id="Group_66" data-name="Group 66" class="cls-4" transform="translate(-533 247)">
          <path id="Path_111" data-name="Path 111" class="cls-5" d="M329.727,172.636H318.818L297,194.455v240h54.545V129H329.727Z" transform="translate(680.545 46.545)"/>
          <path id="Path_112" data-name="Path 112" class="cls-5" d="M683.909,11.909V1H673V481h43.636V22.818H694.818Z" transform="translate(487.273)"/>
          <path id="Path_113" data-name="Path 113" class="cls-5" d="M594.455,145l-21.818-21.818V25H550.818V35.909H539.909V57.727L529,68.636V472.273h87.273v-360H594.455Z" transform="translate(541.273 8.727)"/>
          <path id="Path_114" data-name="Path 114" class="cls-5" d="M486.818,188.636H475.909V145H465V428.636h32.727V166.818H486.818Z" transform="translate(569.818 52.364)"/>
          <path id="Path_115" data-name="Path 115" class="cls-5" d="M243.909,177H233v43.636H222.091v65.455H200.273V253.364H156.636v21.818H134.818V264.273H113V417H254.818V220.636H243.909Z" transform="translate(720 64)"/>
          <path id="Path_116" data-name="Path 116" class="cls-5" d="M893.364,107.909H882.454v10.909H871.545v32.727H838.818V118.818L817,97V446.091h87.273V140.636H893.364Z" transform="translate(389.636 34.909)"/>
          <path id="Path_117" data-name="Path 117" class="cls-5" d="M1065,247.545h-21.818V182.091l-10.909-10.909-10.909,10.909v21.818H999.546V149.364H988.636V73H966.818v32.727H945V454.818h130.909v-240H1065Z" transform="translate(351.636 26.182)"/>
          <path id="Path_118" data-name="Path 118" class="cls-5" d="M1229.364,185.727h-10.909V163.909L1207.546,153l-10.909,10.909v43.636h-21.818V185.727H1153v240h98.182V196.636h-21.818Z" transform="translate(277.273 55.273)"/>
          <path id="Path_119" data-name="Path 119" class="cls-5" d="M1454.091,328.273v21.818h-32.727V317.364l-10.909-10.909V284.636h-10.909V241h-10.909v43.636h-10.909v10.909h-10.909V262.818H1345V393.727h141.818V328.273Z" transform="translate(186.182 87.273)"/>
        </g>
        <g id="Group_109" data-name="Group 109" transform="translate(80.1 617.7)">
          <path id="Union_2" data-name="Union 2" class="cls-2" d="M-423-636.5a22.472,22.472,0,0,1,21.5-16,22.392,22.392,0,0,1,4.948.542q.122-.324.252-.642a22.838,22.838,0,0,1,15.767-12.993A22.553,22.553,0,0,1-358.9-681.9a22.534,22.534,0,0,1,22.5,22.5,24.117,24.117,0,0,1-1.739,7.2h.539a22.8,22.8,0,0,1,19.7,15h-37.3a22.193,22.193,0,0,1-3.7.3h-1.5a18.135,18.135,0,0,1-2.3-.3h-17.425q.118.347.225.7Z" transform="translate(425.2 749.5)"/>
          <g id="Group_13" data-name="Group 13">
            <path id="Path_15" data-name="Path 15" class="cls-1" d="M86.9,102.8l-3.4-2.1A20.491,20.491,0,1,0,45.6,89.9a14.769,14.769,0,0,0,.1,2.1l-4,.4a20.083,20.083,0,0,1-.1-2.5,24.5,24.5,0,1,1,45.3,12.9Z"/>
          </g>
          <g id="Group_14" data-name="Group 14">
            <path id="Path_16" data-name="Path 16" class="cls-1" d="M30.6,97.4l-3.7-1.6A24.489,24.489,0,0,1,43.8,81.7l.9,3.9A20.888,20.888,0,0,0,30.6,97.4Z"/>
          </g>
          <g id="Group_15" data-name="Group 15">
            <path id="Path_17" data-name="Path 17" class="cls-1" d="M3.9,112.9,0,111.8A24.451,24.451,0,0,1,23.6,94a24.054,24.054,0,0,1,13.7,4.2l-2.2,3.3A20.168,20.168,0,0,0,23.7,98,20.4,20.4,0,0,0,3.9,112.9Z"/>
          </g>
          <g id="Group_16" data-name="Group 16">
            <path id="Path_18" data-name="Path 18" class="cls-1" d="M105.2,112.7a20.424,20.424,0,0,0-18-13.6l.3-4A24.38,24.38,0,0,1,109,111.4Z"/>
          </g>
        </g>
        <rect id="Rectangle_11" data-name="Rectangle 11" class="cls-1" width="1357" height="4" transform="translate(43 728)"/>
        <g id="Group_554" data-name="Group 554" transform="translate(544 422)">
          <g id="Group_615" data-name="Group 615">
            <g id="Group_612" data-name="Group 612">
              <g id="Group_610" data-name="Group 610">
                <rect id="Rectangle_1626" data-name="Rectangle 1626" class="cls-2" width="13.7" height="133.9" transform="translate(79.8 172.4)"/>
                <path id="Path_578" data-name="Path 578" class="cls-6" d="M86.6,154.9a7.49,7.49,0,0,0-7.5,7.5v9.9H94.2v-9.9A7.576,7.576,0,0,0,86.6,154.9Z"/>
                <path id="Path_579" data-name="Path 579" class="cls-7" d="M96.6,144.9a10,10,0,1,1-10-10A10.029,10.029,0,0,1,96.6,144.9Z"/>
                <path id="Path_580" data-name="Path 580" class="cls-8" d="M84.8,138.1a10.061,10.061,0,0,1,9.7,12.5,9.633,9.633,0,0,0,2-6A9.968,9.968,0,0,0,76.9,142,9.711,9.711,0,0,1,84.8,138.1Z"/>
                <path id="Path_581" data-name="Path 581" class="cls-2" d="M90.3,144.9a3.7,3.7,0,1,1-3.7-3.7A3.691,3.691,0,0,1,90.3,144.9Z"/>
                <path id="Path_582" data-name="Path 582" class="cls-1" d="M94.2,173.6H79.1a1.324,1.324,0,0,1-1.3-1.3v-9.9a8.8,8.8,0,0,1,17.6,0v9.9A1.135,1.135,0,0,1,94.2,173.6Zm-13.8-2.5H92.9v-8.6a6.2,6.2,0,0,0-12.4,0v8.6Z"/>
                <path id="Path_583" data-name="Path 583" class="cls-1" d="M86.6,156.2a11.3,11.3,0,1,1,11.3-11.3A11.353,11.353,0,0,1,86.6,156.2Zm0-19.9a8.7,8.7,0,1,0,8.7,8.7A8.706,8.706,0,0,0,86.6,136.3Z"/>
                <rect id="Rectangle_1627" data-name="Rectangle 1627" class="cls-9" width="13.7" height="9.5" transform="translate(79.8 219)"/>
                <path id="Path_584" data-name="Path 584" class="cls-1" d="M93.5,308.1H79.8a1.324,1.324,0,0,1-1.3-1.3v-142a1.324,1.324,0,0,1,1.3-1.3H93.5a1.324,1.324,0,0,1,1.3,1.3v142A1.324,1.324,0,0,1,93.5,308.1Zm-12.4-2.6H92.2V166.1H81.1Z"/>
              </g>
              <g id="Group_611" data-name="Group 611">
                <rect id="Rectangle_1628" data-name="Rectangle 1628" class="cls-2" width="13.7" height="133.9" transform="translate(258.6 172.4)"/>
                <path id="Path_585" data-name="Path 585" class="cls-6" d="M265.5,154.9a7.49,7.49,0,0,0-7.5,7.5v9.9h15v-9.9A7.555,7.555,0,0,0,265.5,154.9Z"/>
                <path id="Path_586" data-name="Path 586" class="cls-7" d="M275.4,144.9a10,10,0,1,1-10-10A10.029,10.029,0,0,1,275.4,144.9Z"/>
                <path id="Path_587" data-name="Path 587" class="cls-8" d="M263.6,138.1a10.061,10.061,0,0,1,9.7,12.5,9.633,9.633,0,0,0,2-6,9.968,9.968,0,0,0-19.6-2.6A9.852,9.852,0,0,1,263.6,138.1Z"/>
                <path id="Path_588" data-name="Path 588" class="cls-2" d="M269.1,144.9a3.7,3.7,0,1,1-3.7-3.7A3.691,3.691,0,0,1,269.1,144.9Z"/>
                <path id="Path_589" data-name="Path 589" class="cls-1" d="M273,173.6H257.9a1.324,1.324,0,0,1-1.3-1.3v-9.9a8.8,8.8,0,1,1,17.6,0v9.9A1.135,1.135,0,0,1,273,173.6Zm-13.8-2.5h12.5v-8.6a6.2,6.2,0,0,0-12.4,0v8.6Z"/>
                <path id="Path_590" data-name="Path 590" class="cls-1" d="M265.5,156.2a11.3,11.3,0,1,1,11.3-11.3A11.353,11.353,0,0,1,265.5,156.2Zm0-19.9a8.7,8.7,0,1,0,8.7,8.7A8.706,8.706,0,0,0,265.5,136.3Z"/>
                <rect id="Rectangle_1629" data-name="Rectangle 1629" class="cls-9" width="13.7" height="9.5" transform="translate(258.6 219)"/>
                <path id="Path_591" data-name="Path 591" class="cls-1" d="M272.3,308.1H258.6a1.324,1.324,0,0,1-1.3-1.3v-142a1.324,1.324,0,0,1,1.3-1.3h13.7a1.324,1.324,0,0,1,1.3,1.3v142A1.324,1.324,0,0,1,272.3,308.1Zm-12.4-2.6H271V166.1H259.9Z"/>
              </g>
            </g>
            <rect id="Rectangle_1630" data-name="Rectangle 1630" class="cls-2" width="215.9" height="19" transform="translate(68.1 270.6)"/>
            <rect id="Rectangle_1631" data-name="Rectangle 1631" class="cls-2" width="210.9" height="53.2" transform="translate(70.6 164.8)"/>
            <g id="Group_613" data-name="Group 613">
              <path id="Path_592" data-name="Path 592" class="cls-7" d="M113.6,164.8,68.1,210.3V218H84.2l53.1-53.2Z"/>
              <path id="Path_593" data-name="Path 593" class="cls-7" d="M68.1,172.8v23.7l31.7-31.7H76.1Z"/>
              <path id="Path_594" data-name="Path 594" class="cls-7" d="M212,164.8H188.2L135,218h23.8Z"/>
              <path id="Path_595" data-name="Path 595" class="cls-7" d="M174.5,164.8H150.7L97.5,218h23.8Z"/>
              <path id="Path_596" data-name="Path 596" class="cls-7" d="M249.3,164.8H225.5L172.4,218h23.7Z"/>
              <path id="Path_597" data-name="Path 597" class="cls-7" d="M284,204.7V180.9L247,218h23.7Z"/>
              <path id="Path_598" data-name="Path 598" class="cls-7" d="M284,167.2v-2.4H262.7L209.5,218h23.7Z"/>
            </g>
            <rect id="Rectangle_1632" data-name="Rectangle 1632" class="cls-8" width="215.9" height="5.5" transform="translate(68.1 164.8)"/>
            <path id="Path_599" data-name="Path 599" class="cls-1" d="M284,219.3H68.1a1.324,1.324,0,0,1-1.3-1.3V164.8a1.324,1.324,0,0,1,1.3-1.3H284a1.324,1.324,0,0,1,1.3,1.3V218A1.324,1.324,0,0,1,284,219.3ZM69.4,216.7H282.7V166.1H69.4Z"/>
            <g id="Group_614" data-name="Group 614">
              <path id="Path_600" data-name="Path 600" class="cls-7" d="M79.1,270.6l-11,11v8h8.3l19-19Z"/>
              <path id="Path_601" data-name="Path 601" class="cls-7" d="M123.1,270.6H106.7l-19,19H104Z"/>
              <path id="Path_602" data-name="Path 602" class="cls-7" d="M150,270.6H133.7l-19,19H131Z"/>
              <path id="Path_603" data-name="Path 603" class="cls-7" d="M177.6,270.6H161.3l-19,19h16.3Z"/>
              <path id="Path_604" data-name="Path 604" class="cls-7" d="M207,270.6H190.7l-19.1,19H188Z"/>
              <path id="Path_605" data-name="Path 605" class="cls-7" d="M234.6,270.6H218.3l-19,19h16.3Z"/>
              <path id="Path_606" data-name="Path 606" class="cls-7" d="M263.2,270.6H246.9l-19,19h16.3Z"/>
              <path id="Path_607" data-name="Path 607" class="cls-7" d="M284,277.4v-6.8h-9.5l-19,19h16.3Z"/>
            </g>
            <path id="Path_608" data-name="Path 608" class="cls-1" d="M284,290.9H68.1a1.324,1.324,0,0,1-1.3-1.3v-19a1.324,1.324,0,0,1,1.3-1.3H284a1.324,1.324,0,0,1,1.3,1.3v19A1.324,1.324,0,0,1,284,290.9ZM69.4,288.3H282.7V271.9H69.4Z"/>
          </g>
          <path id="Path_609" data-name="Path 609" class="cls-1" d="M327.1,308.1H25a1.3,1.3,0,1,1,0-2.6H327a1.324,1.324,0,0,1,1.3,1.3A1.24,1.24,0,0,1,327.1,308.1Z"/>
          <g id="Group_616" data-name="Group 616">
            <path id="Path_610" data-name="Path 610" class="cls-7" d="M340.8,297.5l-17.4-72h-9l-17.5,72H286.4v9.3h64.9v-9.3Z"/>
            <path id="Path_611" data-name="Path 611" class="cls-10" d="M333.2,265.1H304.8l2-8.3H331Z"/>
            <rect id="Rectangle_1633" data-name="Rectangle 1633" class="cls-10" width="35.3" height="8.3" transform="translate(300.5 274.5)"/>
            <path id="Path_612" data-name="Path 612" class="cls-8" d="M335.7,297.5l-16.7-72h3.9l17.9,72Z"/>
            <rect id="Rectangle_1634" data-name="Rectangle 1634" class="cls-8" width="64.9" height="4.6" transform="translate(285.9 297.5)"/>
            <path id="Path_613" data-name="Path 613" class="cls-1" d="M350.8,308.1H285.9a1.324,1.324,0,0,1-1.3-1.3v-9.3a1.324,1.324,0,0,1,1.3-1.3h9.5l17.2-71a1.3,1.3,0,0,1,1.3-1h9a1.381,1.381,0,0,1,1.3,1l17.2,71h9.5a1.324,1.324,0,0,1,1.3,1.3v9.3A1.493,1.493,0,0,1,350.8,308.1Zm-63.6-2.6h62.3v-6.7h-9.2a1.381,1.381,0,0,1-1.3-1l-17.2-71h-7l-17.2,71a1.3,1.3,0,0,1-1.3,1h-9.2v6.7Z"/>
            <path id="Path_614" data-name="Path 614" class="cls-1" d="M323.9,298.8H297a1.3,1.3,0,0,1,0-2.6h26.9a1.3,1.3,0,1,1,0,2.6Z"/>
            <path id="Path_615" data-name="Path 615" class="cls-1" d="M346.8,298.8H331.5a1.3,1.3,0,0,1,0-2.6h15.3a1.3,1.3,0,0,1,0,2.6Z"/>
          </g>
          <g id="Group_618" data-name="Group 618" transform="translate(220)">
            <path id="Path_610-2" data-name="Path 610" class="cls-7" d="M340.8,297.5l-17.4-72h-9l-17.5,72H286.4v9.3h64.9v-9.3Z"/>
            <path id="Path_611-2" data-name="Path 611" class="cls-10" d="M333.2,265.1H304.8l2-8.3H331Z"/>
            <rect id="Rectangle_1633-2" data-name="Rectangle 1633" class="cls-10" width="35.3" height="8.3" transform="translate(300.5 274.5)"/>
            <path id="Path_612-2" data-name="Path 612" class="cls-8" d="M335.7,297.5l-16.7-72h3.9l17.9,72Z"/>
            <rect id="Rectangle_1634-2" data-name="Rectangle 1634" class="cls-8" width="64.9" height="4.6" transform="translate(285.9 297.5)"/>
            <path id="Path_613-2" data-name="Path 613" class="cls-1" d="M350.8,308.1H285.9a1.324,1.324,0,0,1-1.3-1.3v-9.3a1.324,1.324,0,0,1,1.3-1.3h9.5l17.2-71a1.3,1.3,0,0,1,1.3-1h9a1.381,1.381,0,0,1,1.3,1l17.2,71h9.5a1.324,1.324,0,0,1,1.3,1.3v9.3A1.493,1.493,0,0,1,350.8,308.1Zm-63.6-2.6h62.3v-6.7h-9.2a1.381,1.381,0,0,1-1.3-1l-17.2-71h-7l-17.2,71a1.3,1.3,0,0,1-1.3,1h-9.2v6.7Z"/>
            <path id="Path_614-2" data-name="Path 614" class="cls-1" d="M323.9,298.8H297a1.3,1.3,0,0,1,0-2.6h26.9a1.3,1.3,0,1,1,0,2.6Z"/>
            <path id="Path_615-2" data-name="Path 615" class="cls-1" d="M346.8,298.8H331.5a1.3,1.3,0,0,1,0-2.6h15.3a1.3,1.3,0,0,1,0,2.6Z"/>
          </g>
          <g id="Group_619" data-name="Group 619" transform="translate(-505)">
            <path id="Path_610-3" data-name="Path 610" class="cls-7" d="M340.8,297.5l-17.4-72h-9l-17.5,72H286.4v9.3h64.9v-9.3Z"/>
            <path id="Path_611-3" data-name="Path 611" class="cls-10" d="M333.2,265.1H304.8l2-8.3H331Z"/>
            <rect id="Rectangle_1633-3" data-name="Rectangle 1633" class="cls-10" width="35.3" height="8.3" transform="translate(300.5 274.5)"/>
            <path id="Path_612-3" data-name="Path 612" class="cls-8" d="M335.7,297.5l-16.7-72h3.9l17.9,72Z"/>
            <rect id="Rectangle_1634-3" data-name="Rectangle 1634" class="cls-8" width="64.9" height="4.6" transform="translate(285.9 297.5)"/>
            <path id="Path_613-3" data-name="Path 613" class="cls-1" d="M350.8,308.1H285.9a1.324,1.324,0,0,1-1.3-1.3v-9.3a1.324,1.324,0,0,1,1.3-1.3h9.5l17.2-71a1.3,1.3,0,0,1,1.3-1h9a1.381,1.381,0,0,1,1.3,1l17.2,71h9.5a1.324,1.324,0,0,1,1.3,1.3v9.3A1.493,1.493,0,0,1,350.8,308.1Zm-63.6-2.6h62.3v-6.7h-9.2a1.381,1.381,0,0,1-1.3-1l-17.2-71h-7l-17.2,71a1.3,1.3,0,0,1-1.3,1h-9.2v6.7Z"/>
            <path id="Path_614-3" data-name="Path 614" class="cls-1" d="M323.9,298.8H297a1.3,1.3,0,0,1,0-2.6h26.9a1.3,1.3,0,1,1,0,2.6Z"/>
            <path id="Path_615-3" data-name="Path 615" class="cls-1" d="M346.8,298.8H331.5a1.3,1.3,0,0,1,0-2.6h15.3a1.3,1.3,0,0,1,0,2.6Z"/>
          </g>
          <g id="Group_617" data-name="Group 617">
            <path id="Path_616" data-name="Path 616" class="cls-7" d="M56.2,297.5l-17.4-72h-9l-17.5,72H1.8v9.3H66.7v-9.3Z"/>
            <path id="Path_617" data-name="Path 617" class="cls-10" d="M48.6,265.1H20.2l2-8.3H46.4Z"/>
            <rect id="Rectangle_1635" data-name="Rectangle 1635" class="cls-10" width="35.3" height="8.3" transform="translate(15.9 274.5)"/>
            <path id="Path_618" data-name="Path 618" class="cls-8" d="M51.1,297.5l-16.7-72h3.9l17.9,72Z"/>
            <rect id="Rectangle_1636" data-name="Rectangle 1636" class="cls-8" width="64.9" height="4.6" transform="translate(1.3 297.5)"/>
            <path id="Path_619" data-name="Path 619" class="cls-1" d="M66.2,308.1H1.3A1.324,1.324,0,0,1,0,306.8v-9.3a1.324,1.324,0,0,1,1.3-1.3h9.5l17.2-71a1.3,1.3,0,0,1,1.3-1h9a1.381,1.381,0,0,1,1.3,1l17.2,71h9.5a1.324,1.324,0,0,1,1.3,1.3v9.3A1.493,1.493,0,0,1,66.2,308.1ZM2.6,305.5H64.9v-6.7H55.7a1.381,1.381,0,0,1-1.3-1l-17.2-71h-7L13,297.8a1.3,1.3,0,0,1-1.3,1H2.6Z"/>
            <path id="Path_620" data-name="Path 620" class="cls-1" d="M39.3,298.8h-27a1.3,1.3,0,1,1,0-2.6H39.2a1.324,1.324,0,0,1,1.3,1.3A1.181,1.181,0,0,1,39.3,298.8Z"/>
            <path id="Path_621" data-name="Path 621" class="cls-1" d="M62.2,298.8H46.8a1.3,1.3,0,1,1,0-2.6H62.1a1.324,1.324,0,0,1,1.3,1.3A1.181,1.181,0,0,1,62.2,298.8Z"/>
          </g>
        </g>
      </g>
    </g>
  </g>
</svg>
