<svg xmlns="http://www.w3.org/2000/svg" viewBox="0 0 95.415 64.9"><defs><style>.cls-1{fill:#242424;stroke:#242424}</style></defs><g id="Group_81" data-name="Group 81" transform="translate(.49 .5)"><g id="Group_80" data-name="Group 80" transform="translate(.04)"><path id="Path_137" data-name="Path 137" class="cls-1" d="M73.643.343a.417.417 0 0 0-.571-.228.872.872 0 0 0-.572.228l-20.209 34.94-4.453-7.65L63.252.913a.6.6 0 0 0-.228-.8.549.549 0 0 0-.685.228l-15.072 26.15L32.308.571a.593.593 0 0 0-.228-.457.6.6 0 0 0-.8.228l-.114.114-4.681 7.994L21.8.343A.612.612 0 0 0 21.347 0a.593.593 0 0 0-.457.228L.108 36.082a.6.6 0 0 0 .228.8.4.4 0 0 1 .229.118.593.593 0 0 0 .457-.228l7.194-12.56h9.134l-6.85 11.87a.6.6 0 0 0 .228.8.4.4 0 0 1 .228.114.593.593 0 0 0 .457-.228l7.194-12.446h15.414l7.194 12.56a.456.456 0 0 0 .457.228c.114 0 .228 0 .228-.114a.655.655 0 0 0 .228-.8L27.17 9.591l4.453-7.765 20.1 34.94c0 .114.114.114.228.228.114 0 .114 0 .228.114h.114c.114 0 .114 0 .228-.114.114 0 .114-.114.228-.228l14.842-25.69 14.73 25.577a.456.456 0 0 0 .457.228c.114 0 .228 0 .228-.114a.655.655 0 0 0 .228-.8L68.162 9.934l4.91-8.334 20.211 35.053a.456.456 0 0 0 .457.228c.114 0 .228 0 .228-.114a.655.655 0 0 0 .228-.8zM8.9 22.951L21.233 1.6 25.8 9.591l-7.765 13.36H8.9zm24.664 0H19.406l7.079-12.218z" transform="translate(-.04)"/><path id="Path_138" data-name="Path 138" class="cls-1" d="M73.571 1.342H83.5a.539.539 0 0 0 .571-.571A.539.539 0 0 0 83.5.2h-9.929A.539.539 0 0 0 73 .771a.539.539 0 0 0 .571.571z" transform="translate(10.309 .028)"/></g><path id="Path_139" data-name="Path 139" d="M6.038 46.911v2.284a3.378 3.378 0 0 1-.228 1.142 2.048 2.048 0 0 1-.571.8 2.486 2.486 0 0 1-.913.571 3.53 3.53 0 0 1-.913.228H1.128v6.052H.1V42.8h3.426a2.687 2.687 0 0 1 .913.228 1.84 1.84 0 0 1 .8.457 2.048 2.048 0 0 1 .571.8 3.334 3.334 0 0 1 .228 1.028v1.6zM3.3 50.793a1.242 1.242 0 0 0 .571-.114 1.521 1.521 0 0 0 .571-.343l.457-.457a1.448 1.448 0 0 0 .114-.685v-3.882a1.113 1.113 0 0 0-.457-1.028 1.842 1.842 0 0 0-1.028-.343h-2.4v6.965H3.3zm10.619 7.194V42.8h5.938v1.028h-4.91v4.91h3.882v1.142h-3.885v6.965h4.91v1.028h-5.938zm17.128-8.564a1.776 1.776 0 0 1 .685.913c.114.343.343.571.343.8a21.557 21.557 0 0 1 .685 2.055c.228.8.343 1.484.571 2.17a12.611 12.611 0 0 1 .343 1.827 3.65 3.65 0 0 1 .114.8h-1.031a.884.884 0 0 0-.114-.343 3.53 3.53 0 0 0-.228-.913c-.114-.343-.114-.8-.228-1.256l-.343-1.37-.343-1.37a4.09 4.09 0 0 0-.457-1.256l-.571-1.142c-.228-.228-.457-.457-.685-.457h-.8v8.107h-1.027V42.8h1.028v6.052h.911c.228 0 .457-.228.685-.457a2.677 2.677 0 0 0 .571-1.142c.228-.571.343-1.028.571-1.6a11.849 11.849 0 0 1 .343-1.37 7.279 7.279 0 0 1 .228-1.028.5.5 0 0 1 .114-.343h1.028a1.138 1.138 0 0 1-.114.457 5.025 5.025 0 0 1-.228 1.142c-.114.457-.228.913-.343 1.484a10.048 10.048 0 0 1-.571 1.713 5.567 5.567 0 0 0-.343.8c-.228.228-.457.571-.8.913zM47.715 42.8h.228v15.187H46.8V43.828h-2.625c-.228 0-.343.114-.571.228a.892.892 0 0 0-.457.457 1.65 1.65 0 0 0-.228.8V54.9a3.161 3.161 0 0 1-.114 1.028c-.114.343-.228.8-.343 1.142a6.334 6.334 0 0 1-.685.913 2.051 2.051 0 0 1-1.256.343V57.3h.343a.866.866 0 0 0 .457-.228 1.859 1.859 0 0 0 .343-.685 4.705 4.705 0 0 0 .114-1.37v-9.591A2.386 2.386 0 0 1 44.4 42.8h3.311zm10.619 0h2.4l2.284 15.187h-1.144l-.913-6.28v.228h-3.084l-1.027 6.052h-1.028L58.334 42.8zm-.228 7.993h2.74l-1.028-6.965h-.571l-1.142 6.965zm17.47 7.194h-1.028l-2.626-10.734v10.734h-1.028V42.8h1.028L75 55.7l3.083-12.9h1.028v15.187h-1.023V47.253l-2.512 10.734zM89.621 42.8h2.4L94.3 57.987h-1.14l-.913-6.28v.228h-3.083l-1.028 6.052h-1.027L89.621 42.8zm-.228 7.993h2.74L91.1 43.828h-.571z" transform="translate(.008 6.071)" fill="#ee7601" fill-rule="evenodd"/></g></svg>