<svg xmlns="http://www.w3.org/2000/svg" viewBox="0 0 1280.3 579">
  <defs>
    <style>
      .cls-1 {
        fill: #242424;
      }
    </style>
  </defs>
  <g id="Group_627" data-name="Group 627" transform="translate(-78.35 -156)">
    <path id="Path_129" data-name="Path 129" class="cls-1" d="M87,32H0l.6-2.3A20.98,20.98,0,0,1,20.9,14.1a10.869,10.869,0,0,1,1.8.1A18.481,18.481,0,0,1,55.9,8a7.569,7.569,0,0,1,1.5-.1,10.537,10.537,0,0,1,10.4,8.6A26.034,26.034,0,0,1,85.5,29.3ZM4.9,28.4H80.5a22.49,22.49,0,0,0-14.6-8.5l-1.5-.2-.1-1.5a7.031,7.031,0,0,0-7-6.7,5.663,5.663,0,0,0-1.8.3l-1.4.4L53.4,11A14.9,14.9,0,0,0,40.6,3.7,14.666,14.666,0,0,0,26,16.4l-.3,1.9L23.9,18a15.262,15.262,0,0,0-3-.3A17.463,17.463,0,0,0,4.9,28.4Z" transform="translate(1232 212)"/>
    <path id="Path_262" data-name="Path 262" class="cls-1" d="M87,32H0l.6-2.3A20.98,20.98,0,0,1,20.9,14.1a10.869,10.869,0,0,1,1.8.1A18.481,18.481,0,0,1,55.9,8a7.569,7.569,0,0,1,1.5-.1,10.537,10.537,0,0,1,10.4,8.6A26.034,26.034,0,0,1,85.5,29.3ZM4.9,28.4H80.5a22.49,22.49,0,0,0-14.6-8.5l-1.5-.2-.1-1.5a7.031,7.031,0,0,0-7-6.7,5.663,5.663,0,0,0-1.8.3l-1.4.4L53.4,11A14.9,14.9,0,0,0,40.6,3.7,14.666,14.666,0,0,0,26,16.4l-.3,1.9L23.9,18a15.262,15.262,0,0,0-3-.3A17.463,17.463,0,0,0,4.9,28.4Z" transform="translate(278 156)"/>
    <path id="Path_1161" data-name="Path 1161" class="cls-1" d="M87,32H0l.6-2.3A20.98,20.98,0,0,1,20.9,14.1a10.869,10.869,0,0,1,1.8.1A18.481,18.481,0,0,1,55.9,8a7.569,7.569,0,0,1,1.5-.1,10.537,10.537,0,0,1,10.4,8.6A26.034,26.034,0,0,1,85.5,29.3ZM4.9,28.4H80.5a22.49,22.49,0,0,0-14.6-8.5l-1.5-.2-.1-1.5a7.031,7.031,0,0,0-7-6.7,5.663,5.663,0,0,0-1.8.3l-1.4.4L53.4,11A14.9,14.9,0,0,0,40.6,3.7,14.666,14.666,0,0,0,26,16.4l-.3,1.9L23.9,18a15.262,15.262,0,0,0-3-.3A17.463,17.463,0,0,0,4.9,28.4Z" transform="translate(916 703)"/>
    <path id="Path_130" data-name="Path 130" class="cls-1" d="M61.3,20.3H.4L.1,18.8c0-.6-.1-1.2-.1-1.8A9.709,9.709,0,0,1,9.7,7.3a10.974,10.974,0,0,1,4,.8A13.643,13.643,0,0,1,35.4,3.6,8.6,8.6,0,0,1,41.7,1a9.133,9.133,0,0,1,9.1,9.1v.7a19.329,19.329,0,0,1,8.5,6.7ZM3.6,16.7h50a19.105,19.105,0,0,0-5.4-3l-1.7-.5.5-1.7a5.9,5.9,0,0,0,.2-1.4,5.549,5.549,0,0,0-5.5-5.5A5.454,5.454,0,0,0,37,7.3L35.6,9.6,34,7.5a9.958,9.958,0,0,0-17.5,3.8l-.7,2.8-2.2-1.8a5.943,5.943,0,0,0-3.8-1.4A6.229,6.229,0,0,0,3.6,16.7Z" transform="translate(78.35 329.7)"/>
    <path id="Path_1162" data-name="Path 1162" class="cls-1" d="M61.3,20.3H.4L.1,18.8c0-.6-.1-1.2-.1-1.8A9.709,9.709,0,0,1,9.7,7.3a10.974,10.974,0,0,1,4,.8A13.643,13.643,0,0,1,35.4,3.6,8.6,8.6,0,0,1,41.7,1a9.133,9.133,0,0,1,9.1,9.1v.7a19.329,19.329,0,0,1,8.5,6.7ZM3.6,16.7h50a19.105,19.105,0,0,0-5.4-3l-1.7-.5.5-1.7a5.9,5.9,0,0,0,.2-1.4,5.549,5.549,0,0,0-5.5-5.5A5.454,5.454,0,0,0,37,7.3L35.6,9.6,34,7.5a9.958,9.958,0,0,0-17.5,3.8l-.7,2.8-2.2-1.8a5.943,5.943,0,0,0-3.8-1.4A6.229,6.229,0,0,0,3.6,16.7Z" transform="translate(278.35 608.7)"/>
    <path id="Path_1160" data-name="Path 1160" class="cls-1" d="M61.3,20.3H.4L.1,18.8c0-.6-.1-1.2-.1-1.8A9.709,9.709,0,0,1,9.7,7.3a10.974,10.974,0,0,1,4,.8A13.643,13.643,0,0,1,35.4,3.6,8.6,8.6,0,0,1,41.7,1a9.133,9.133,0,0,1,9.1,9.1v.7a19.329,19.329,0,0,1,8.5,6.7ZM3.6,16.7h50a19.105,19.105,0,0,0-5.4-3l-1.7-.5.5-1.7a5.9,5.9,0,0,0,.2-1.4,5.549,5.549,0,0,0-5.5-5.5A5.454,5.454,0,0,0,37,7.3L35.6,9.6,34,7.5a9.958,9.958,0,0,0-17.5,3.8l-.7,2.8-2.2-1.8a5.943,5.943,0,0,0-3.8-1.4A6.229,6.229,0,0,0,3.6,16.7Z" transform="translate(1297.35 470.7)"/>
  </g>
</svg>
